<?xml version="1.0" encoding="utf-8"?>
<!-- Generator: Adobe Illustrator 19.2.1, SVG Export Plug-In . SVG Version: 6.00 Build 0)  -->
<svg version="1.1" id="Layer_1" xmlns="http://www.w3.org/2000/svg" xmlns:xlink="http://www.w3.org/1999/xlink" x="0px" y="0px"
	 viewBox="0 0 600 600" enable-background="new 0 0 600 600" xml:space="preserve">
<circle fill="#F3F3F3" cx="300.3" cy="300" r="298"/>
<circle fill="#FBC830" stroke="#FBC830" stroke-miterlimit="10" cx="300.3" cy="297.9" r="110.2"/>
<g>
	<path fill="#FFFFFF" d="M342.3,267c0,3-0.4,6-1.1,9c-0.8,3-2,5.7-3.7,8.2c-1.7,2.5-4,4.7-6.7,6.6c-2.8,1.9-6.1,3.3-10,4.2v1
		c3.5,0.6,6.7,1.6,9.8,2.9c3.1,1.4,5.8,3.3,8.1,5.7c2.3,2.4,4.1,5.4,5.4,8.8s2,7.5,2,12.3c0,6.2-1.3,11.6-4,16.1
		c-2.6,4.6-6.2,8.3-10.6,11.1c-4.4,2.9-9.5,5-15.1,6.4c-5.6,1.4-11.5,2.1-17.4,2.1c-2,0-4.5,0-7.5,0c-3.1,0-6.3-0.1-9.8-0.3
		c-3.5-0.2-7.1-0.4-10.7-0.8c-3.6-0.3-6.9-0.9-9.9-1.6V239.7c2.2-0.3,4.7-0.7,7.5-1c2.8-0.3,5.8-0.6,9.1-0.9
		c3.2-0.2,6.5-0.4,9.9-0.5c3.4-0.1,6.8-0.2,10.1-0.2c5.6,0,11.1,0.4,16.5,1.3c5.3,0.9,10.1,2.4,14.3,4.6c4.2,2.2,7.6,5.2,10.1,9.1
		C341.1,256.1,342.3,261,342.3,267z M291.4,289.6c1.6,0,3.5-0.1,5.6-0.2c2.1-0.1,3.9-0.3,5.3-0.5c4.4-1.4,8.1-3.4,11.3-6.1
		c3.2-2.7,4.8-6.3,4.8-10.8c0-3-0.6-5.4-1.7-7.3c-1.2-1.9-2.7-3.5-4.6-4.6c-1.9-1.1-4.1-1.9-6.5-2.4c-2.4-0.5-4.9-0.7-7.6-0.7
		c-3,0-5.8,0.1-8.3,0.2c-2.5,0.1-4.5,0.3-5.9,0.5v31.9H291.4z M299.2,341.6c2.9,0,5.7-0.3,8.4-1c2.7-0.7,5.1-1.7,7.2-3.2
		c2.1-1.4,3.7-3.2,5-5.4c1.3-2.2,1.9-4.7,1.9-7.7c0-3.8-0.7-6.7-2.2-8.9c-1.5-2.2-3.5-3.8-5.9-5c-2.4-1.2-5.1-2-8.1-2.3
		c-3-0.3-6-0.5-9-0.5h-12.6v33c0.6,0.2,1.5,0.4,2.8,0.5c1.3,0.1,2.6,0.2,4.1,0.3c1.4,0.1,2.9,0.1,4.5,0.2
		C296.7,341.6,298,341.6,299.2,341.6z"/>
</g>
<circle fill="#A884BA" stroke="#A884BA" stroke-miterlimit="10" cx="483.6" cy="481.6" r="110.2"/>
<g>
	<path fill="#FFFFFF" d="M521.2,537.6c-3.7,2.6-8.4,4.5-14.1,5.7c-5.7,1.1-11.5,1.7-17.5,1.7c-7.2,0-14.1-1.1-20.6-3.4
		c-6.5-2.2-12.2-5.9-17.2-10.9c-5-5-8.9-11.5-11.8-19.5c-2.9-8-4.4-17.7-4.4-29.1c0-11.9,1.6-21.8,4.9-29.8
		c3.3-8,7.5-14.4,12.8-19.3c5.2-4.9,11.1-8.4,17.5-10.5c6.4-2.1,12.9-3.2,19.3-3.2c6.9,0,12.8,0.5,17.5,1.4c4.8,0.9,8.7,2,11.8,3.3
		l-4.7,20c-2.6-1.3-5.8-2.2-9.4-2.8c-3.6-0.6-8-0.9-13.2-0.9c-9.6,0-17.2,3.4-23,10.2c-5.8,6.8-8.7,17.4-8.7,31.7
		c0,6.2,0.7,11.9,2.1,17c1.4,5.1,3.5,9.5,6.3,13.1c2.8,3.6,6.3,6.5,10.5,8.5c4.2,2,9.1,3,14.6,3c5.2,0,9.5-0.5,13.1-1.6
		c3.6-1,6.7-2.4,9.3-4L521.2,537.6z"/>
</g>
<circle fill="#03AC8B" stroke="#03AC8B" stroke-miterlimit="10" cx="118.3" cy="116.3" r="110.2"/>
<g>
	<path fill="#FFFFFF" d="M135.5,149.2H98.4L89.2,176H65.6l43.5-121.7h17.4L170,176h-24.9L135.5,149.2z M104.4,130.2h25.9l-9-26.9
		l-3.6-19h-0.9l-3.6,19.2L104.4,130.2z"/>
</g>
</svg>
