<?xml version="1.0" encoding="utf-8"?>
<!-- Generator: Adobe Illustrator 19.2.1, SVG Export Plug-In . SVG Version: 6.00 Build 0)  -->
<svg version="1.1" xmlns="http://www.w3.org/2000/svg" xmlns:xlink="http://www.w3.org/1999/xlink" x="0px" y="0px"
	 viewBox="0 0 50 50" enable-background="new 0 0 50 50" xml:space="preserve">
<g id="Layer_3">
	<circle fill="#999999" cx="25.3" cy="25" r="23.4"/>
	<path fill="none" stroke="#FFFFFF" stroke-width="2" stroke-linecap="round" stroke-linejoin="round" stroke-miterlimit="10" d="
		M48.1,57.4"/>
	<path fill="none" d="M36.2,39.1L36.2,39.1C36.1,39.1,36.1,39.1,36.2,39.1C36.2,39.1,36.2,39.1,36.2,39.1z"/>
	<path fill="#8AC547" d="M36.1,39L36.1,39C36.2,39.1,36.2,39.1,36.1,39C36.1,39.1,36.1,39.1,36.1,39z"/>
	<path fill="#F3F3F3" stroke="#999999" stroke-miterlimit="10" d="M13.8,35.5c-0.2,0-2.8-0.5-3.1-2.2c-0.4-2.2,0.6-4.7,2.3-5.6
		c0.8-0.4,1.7-0.8,2.6-1.1c2.2-0.8,2.4-1.4,0.8-3c-2.1-2.2-2.3-4.9-1.6-7.7c0.6-2.1,3.2-3.3,5.8-2.9c2.5,0.4,4.1,2,4.2,4.3
		c0.1,2.4-0.4,4.6-2.2,6.4c-1.3,1.2-1,2.1,0.6,2.7c0.7,0.3,1.5,0.5,2.2,0.8c2.3,0.9,3.7,3.6,3.1,6c-0.5,2-2.7,2.2-4.2,2.5
		C23.6,36,21,36,20,36C19.1,36,17.1,36,13.8,35.5C13.9,35.5,13.8,35.5,13.8,35.5z"/>
	<path fill="#F3F3F3" stroke="#999999" stroke-miterlimit="10" d="M25.8,35.5c-1.3-0.1-2.7-0.5-3-2.1c-0.4-2.1,0.6-4.3,2.2-5.2
		c0.8-0.4,1.7-0.7,2.6-1c2.1-0.7,2.3-1.3,0.8-2.8c-2.1-2.1-2.2-4.6-1.5-7.1c0.6-2,3-3,5.5-2.6c2.4,0.4,3.9,1.8,4.1,4
		c0.1,2.2-0.3,4.3-2.1,5.9c-1.2,1.1-1,1.9,0.6,2.5c0.7,0.3,1.4,0.5,2.1,0.7c2.2,0.9,3.6,3.4,3,5.5c-0.5,1.8-2.6,2.1-4.1,2.3
		C35.2,36,32.7,36,31.7,36c-0.8,0-2.4,0-5.6-0.5C26.1,35.6,25.9,35.5,25.8,35.5z"/>
</g>
<g id="Layer_2">
</g>
<g id="Layer_1">
</g>
</svg>
