<svg id="Layer_2" data-name="Layer 2" xmlns="http://www.w3.org/2000/svg" viewBox="0 0 600 600"><title>topic-map-circle-01</title><rect y="-1" width="631.57" height="613.07" style="fill:#fff"/><line x1="5.55" y1="285.4" x2="596.45" y2="285.4" style="fill:none;stroke:#a6a8ab;stroke-miterlimit:10;stroke-width:3px"/><line x1="323.76" y1="440.41" x2="486.2" y2="440.41" style="fill:none;stroke:#a6a8ab;stroke-miterlimit:10;stroke-width:3px"/><polyline points="395.25 274.6 407.15 286.5 395.25 298.3" style="fill:none;stroke:#a6a8ab;stroke-linecap:round;stroke-linejoin:round;stroke-width:3px"/><polyline points="83.44 274.6 95.34 286.5 83.44 298.3" style="fill:none;stroke:#a6a8ab;stroke-linecap:round;stroke-linejoin:round;stroke-width:3px"/><polyline points="239.35 274.6 251.25 286.5 239.35 298.3" style="fill:none;stroke:#a6a8ab;stroke-linecap:round;stroke-linejoin:round;stroke-width:3px"/><polyline points="242.83 199.66 259.66 199.66 259.59 216.41" style="fill:none;stroke:#a6a8ab;stroke-linecap:round;stroke-linejoin:round;stroke-width:3px"/><polyline points="390.32 53.15 407.15 53.15 407.08 69.91" style="fill:none;stroke:#a6a8ab;stroke-linecap:round;stroke-linejoin:round;stroke-width:3px"/><polyline points="236.88 47.15 253.71 47.15 253.64 63.9" style="fill:none;stroke:#a6a8ab;stroke-linecap:round;stroke-linejoin:round;stroke-width:3px"/><polyline points="395.25 430.25 407.15 442.15 395.25 453.95" style="fill:none;stroke:#a6a8ab;stroke-linecap:round;stroke-linejoin:round;stroke-width:3px"/><polyline points="575.41 359.53 575.41 376.36 558.66 376.29" style="fill:none;stroke:#a6a8ab;stroke-linecap:round;stroke-linejoin:round;stroke-width:3px"/><polyline points="100.2 359.53 100.2 376.36 83.44 376.29" style="fill:none;stroke:#a6a8ab;stroke-linecap:round;stroke-linejoin:round;stroke-width:3px"/><line x1="173.8" y1="286.4" x2="471.71" y2="-11.51" style="fill:none;stroke:#a6a8ab;stroke-miterlimit:10;stroke-width:3px"/><line x1="172.13" y1="131.41" x2="315.06" y2="-11.51" style="fill:none;stroke:#a6a8ab;stroke-miterlimit:10;stroke-width:3px"/><line x1="486.2" y1="286.4" x2="607.49" y2="165.11" style="fill:none;stroke:#a6a8ab;stroke-miterlimit:10;stroke-width:3px"/><line x1="485.2" y1="285" x2="606.49" y2="406.29" style="fill:none;stroke:#a6a8ab;stroke-miterlimit:10;stroke-width:3px"/><line x1="169.6" y1="285" x2="325.01" y2="440.41" style="fill:none;stroke:#a6a8ab;stroke-miterlimit:10;stroke-width:3px"/><line x1="10.69" y1="285" x2="166.1" y2="440.41" style="fill:none;stroke:#a6a8ab;stroke-miterlimit:10;stroke-width:3px"/><line x1="171.6" y1="285.35" x2="171.6" y2="-8.51" style="fill:none;stroke:#a6a8ab;stroke-miterlimit:10;stroke-width:3px"/><circle cx="327.01" cy="131.41" r="21.9" style="fill:#923b87"/><circle cx="327.01" cy="287" r="21.9" style="fill:#923b87"/><circle cx="485.2" cy="287" r="21.9" style="fill:#923b87"/><circle cx="485.2" cy="442.1" r="21.9" style="fill:#923b87"/><circle cx="172.13" cy="442.1" r="21.9" style="fill:#2a768c"/><circle cx="171.6" cy="287" r="21.9" style="fill:#923b87"/><circle cx="10.69" cy="287" r="21.9" style="fill:#923b87"/><rect x="54.68" y="474.48" width="190.03" height="71.85" style="fill:#fff;opacity:0.5400000214576721;isolation:isolate"/><g style="isolation:isolate"><text transform="translate(69.05 494.59)" style="isolation:isolate;font-size:19.808300018310547px;fill:gray;font-family:Arial">Einführung in </text><text transform="translate(69.05 518.39)" style="isolation:isolate;font-size:19.808300018310547px;fill:gray;font-family:Arial">Dezimalzahlen und<tspan x="0" y="23.77">Stellenwert</tspan></text></g><rect x="385.06" y="469.81" width="202.28" height="71.85" style="fill:#fff;opacity:0.5400000214576721;isolation:isolate"/><g style="isolation:isolate"><text transform="translate(399.43 489.93)" style="isolation:isolate;font-size:19.808300018310547px;fill:gray;font-family:Arial">Brüche addieren und </text><text transform="translate(399.43 513.73)" style="isolation:isolate;font-size:19.808300018310547px;fill:gray;font-family:Arial">subtrahieren</text></g><rect x="269.43" y="315.77" width="202.28" height="71.85" style="fill:#fff;opacity:0.5400000214576721;isolation:isolate"/><g style="isolation:isolate"><text transform="translate(283.8 335.88)" style="isolation:isolate;font-size:19.808300018310547px;fill:gray;font-family:Arial"><tspan style="letter-spacing:-1px">V</tspan><tspan x="12.12" y="0">erhältniszahlen </tspan></text><text transform="translate(283.8 359.68)" style="isolation:isolate;font-size:19.808300018310547px;fill:gray;font-family:Arial">kürzen</text></g><rect x="130.56" y="209.77" width="71.08" height="45.87" style="fill:#fff;opacity:0.5400000214576721;isolation:isolate"/><g style="isolation:isolate"><text transform="translate(134.45 229.89)" style="isolation:isolate;font-size:19.808300018310547px;fill:gray;font-family:Arial">Brüche </text><text transform="translate(134.45 253.69)" style="isolation:isolate;font-size:19.808300018310547px;fill:gray;font-family:Arial">kürzen</text></g><rect x="356.84" y="105.58" width="122.64" height="51.66" style="fill:#fff;opacity:0.5400000214576721;isolation:isolate"/><g style="isolation:isolate"><text transform="translate(360.73 125.7)" style="isolation:isolate;font-size:19.808300018310547px;fill:gray;font-family:Arial">Brüche </text><text transform="translate(360.73 149.5)" style="isolation:isolate;font-size:19.808300018310547px;fill:gray;font-family:Arial">multiplizieren</text></g><rect x="392.38" y="210.67" width="187.65" height="51.66" style="fill:#fff;opacity:0.5400000214576721;isolation:isolate"/><g style="isolation:isolate"><text transform="translate(396.26 230.79)" style="isolation:isolate;font-size:19.808300018310547px;fill:gray;font-family:Arial">Summen in</text><text transform="translate(396.26 254.59)" style="isolation:isolate;font-size:19.808300018310547px;fill:gray;font-family:Arial"><tspan style="letter-spacing:-1px">V</tspan><tspan x="12.12" y="0">erhältniszahlen teilen</tspan></text></g><rect x="450.66" y="4.44" width="112.07" height="25.89" style="fill:#fff;opacity:0.5400000214576721;isolation:isolate"/><g style="isolation:isolate"><text transform="translate(454.55 24.55)" style="isolation:isolate;font-size:19.808300018310547px;fill:gray;font-family:Arial">Brüche teilen</text></g><g id="Layer_9" data-name="Layer 9"><circle cx="300.3" cy="300" r="298" style="fill:none"/><path d="M300.3,2C135.7,2,2.3,135.4,2.3,300s133.4,298,298,298c163.1,0,295.5-131,297.9-293.5a22.19,22.19,0,0,1-13.1,4.4,21.9,21.9,0,1,1,0-43.8,21.47,21.47,0,0,1,11.5,3.3C580.8,118.7,454.2,2,300.3,2Z" style="fill:none"/><path d="M300.3,598c-164.6,0-298-133.4-298-298S135.7,2,300.3,2C454.2,2,580.9,118.7,596.6,268.4c0.8,0.5,1.6,1.1,2.4,1.7V-1H0V599H599V303.9c-0.3.2-.5,0.4-0.8,0.6C595.8,467,463.3,598,300.3,598Z" style="fill:#f3f3f3"/><path d="M596.6,268.4a299.72,299.72,0,0,1,1.7,31.6c0,1.5,0,3-.1,4.5,0.3-.2.5-0.4,0.8-0.6V270.1C598.2,269.5,597.4,268.9,596.6,268.4Z" style="fill:#f3f3f3"/></g></svg>