<svg id="Layer_1" data-name="Layer 1" xmlns="http://www.w3.org/2000/svg" viewBox="0 0 600 600"><title>grades-grey-bg-01</title><circle cx="300.3" cy="300" r="298" style="fill:#fff"/><circle cx="300.3" cy="297.9" r="110.2" style="fill:#fbc830;stroke:#fbc830;stroke-miterlimit:10"/><path d="M330.48,266.55a56.74,56.74,0,0,1-3.39,18.88,122.41,122.41,0,0,1-8.87,19.4,192.53,192.53,0,0,1-12.27,19.05q-6.79,9.31-13.57,17.66L283.85,349v0.7L295,347.8h37.93v12.87H263.67v-5q3.82-4,9.22-9.92t11.22-13.14q5.83-7.22,11.48-15.31a183.75,183.75,0,0,0,10.27-16.44,102.83,102.83,0,0,0,7.39-16.53A48.13,48.13,0,0,0,316,268.81a21,21,0,0,0-4.87-14.18Q306.29,249,296.38,249a32.26,32.26,0,0,0-12.87,2.7,50.17,50.17,0,0,0-10.79,6.18L267,247.94a45,45,0,0,1,14.44-8.18,53.32,53.32,0,0,1,17.92-3A37.18,37.18,0,0,1,312.56,239a27.24,27.24,0,0,1,9.74,6.18,26.69,26.69,0,0,1,6.09,9.48A33.2,33.2,0,0,1,330.48,266.55Z" style="fill:#fff"/><circle cx="483.6" cy="481.6" r="110.2" style="fill:#a884ba;stroke:#a884ba;stroke-miterlimit:10"/><path d="M479.79,534.82a33.39,33.39,0,0,0,11-1.74,24.18,24.18,0,0,0,8.7-5.13,24.44,24.44,0,0,0,5.74-8.09,25,25,0,0,0,2.09-10.27q0-12.17-7.22-18.09t-19.92-5.91H467.27v-5l25.05-38.62,8-7.66L489,436H454.57V423.13h62.11v5L489,469.75l-6.09,5v0.35l5.91-1.22a37.16,37.16,0,0,1,12.87,2.52A29.4,29.4,0,0,1,512,483.24a31.5,31.5,0,0,1,6.79,10.61,38,38,0,0,1,2.44,14,40.16,40.16,0,0,1-3.3,16.7,35.6,35.6,0,0,1-9,12.26,39.06,39.06,0,0,1-13.31,7.57A49.83,49.83,0,0,1,479.44,547a74.29,74.29,0,0,1-14.09-1.22,59,59,0,0,1-11-3.13L458,530.3a47.51,47.51,0,0,0,9.48,3.22A53.08,53.08,0,0,0,479.79,534.82Z" style="fill:#fff"/><circle cx="118.3" cy="116.3" r="110.2" style="fill:#03ac8b;stroke:#03ac8b;stroke-miterlimit:10"/><path d="M90.07,163.26h24.1V79.95l1.72-10.16L109,77.88,90.07,91.48,83.52,82.7,121.4,53.44h6.2V163.26h23.58V176H90.07V163.26Z" style="fill:#fff"/></svg>