<?xml version="1.0" encoding="utf-8"?>
<!-- Generator: Adobe Illustrator 18.1.1, SVG Export Plug-In . SVG Version: 6.00 Build 0)  -->
<svg version="1.1" xmlns="http://www.w3.org/2000/svg" xmlns:xlink="http://www.w3.org/1999/xlink" x="0px" y="0px"
	 viewBox="0 0 50 50" enable-background="new 0 0 50 50" xml:space="preserve">
<g id="Layer_3">
	<circle fill="#F2F2F2" cx="25.3" cy="25" r="23.4"/>
</g>
<g id="Layer_2">
</g>
<g id="Layer_1">
	<path fill="none" d="M25.6,25.1l0.5-0.5l1.1-1.1c0,0,0,0,0-0.1l0.8-0.8c0.3-0.3,0.3-0.8,0-1.1c-0.3-0.3-0.8-0.3-1.1,0l-1.6,1.6
		c0,0,0,0,0,0.1l-0.3,0.3l-0.7-0.7c-0.3-0.3-0.8-0.3-1.1,0c-0.3,0.3-0.3,0.8,0,1.1l1.2,1.2"/>
	<path fill="none" d="M24.7,21.3L24.7,21.3C24.6,21.3,24.6,21.3,24.7,21.3C24.6,21.3,24.6,21.3,24.7,21.3z"/>
	<g>
		<path fill="#999999" d="M31.5,18.9h-13c-0.3,0-0.5-0.4-0.5-0.9c0-0.5,0.2-0.9,0.5-0.9h13c0.3,0,0.5,0.4,0.5,0.9
			C32,18.5,31.8,18.9,31.5,18.9z"/>
	</g>
	<g>
		<path fill="#999999" d="M30.5,31H18.5c-0.3,0-0.5-0.4-0.5-0.9s0.2-0.9,0.5-0.9h12.1c0.3,0,0.5,0.4,0.5,0.9S30.8,31,30.5,31z"/>
	</g>
	<g>
		<path fill="#999999" d="M30.4,25H18.6c-0.3,0-0.6-0.4-0.6-0.9c0-0.5,0.3-0.9,0.6-0.9h11.8c0.3,0,0.6,0.4,0.6,0.9
			C31,24.6,30.7,25,30.4,25z"/>
	</g>
	<path fill="none" stroke="#999999" stroke-width="2" stroke-miterlimit="10" d="M32.5,40H17.5c-2,0-3.5-1.6-3.5-3.5V14.5
		c0-2,1.6-3.5,3.5-3.5h14.9c2,0,3.5,1.6,3.5,3.5v21.9C36,38.4,34.4,40,32.5,40z"/>
	<path fill="#41A7DE" d="M42,20.4c0,0.9,0,1.8,0,2.7c0,1.4-0.4,2.5-1.3,3.5c-1.2,1.3-2.6,2.2-4.3,2.6c-0.1,0-0.1,0-0.2,0
		c-1.9-0.5-3.5-1.5-4.7-3.1c-0.6-0.9-0.9-1.9-0.9-3c0-2,0-4,0-5.9c0-0.4,0.1-0.5,0.5-0.5c1,0.1,1.9,0,2.9-0.3c0.8-0.2,1.4-0.7,2-1.2
		c0.1-0.1,0.1-0.1,0.2-0.2c0.2-0.2,0.3-0.2,0.5,0c0.2,0.2,0.5,0.4,0.8,0.6c0.8,0.6,1.6,0.9,2.5,1c0.6,0.1,1.2,0,1.9,0
		c0.2,0,0.4,0.1,0.4,0.4C42,18.2,42,19.3,42,20.4z"/>
</g>
</svg>
