<?xml version="1.0" encoding="utf-8"?>
<!-- Generator: Adobe Illustrator 19.2.1, SVG Export Plug-In . SVG Version: 6.00 Build 0)  -->
<svg version="1.1" id="Layer_1" xmlns="http://www.w3.org/2000/svg" xmlns:xlink="http://www.w3.org/1999/xlink" x="0px" y="0px"
	 viewBox="0 0 45 33" enable-background="new 0 0 45 33" xml:space="preserve">
<g>
	<path fill="#35A6DE" d="M11.7,21.7c-1.2-0.2-2.2-0.2-3.2-0.5c-4-0.9-6.7-3.2-7.7-7.1C-0.4,9.9,0.4,6.2,3.5,3.2
		c4.9-4.7,12.7-3.7,16.1,1.9c1.4,2.3,1.9,4.9,1.9,7.6c-0.1,7.3-2.9,13.2-9.3,17.1C9.8,31.4,7,32.1,4,32.2c-1.6,0-2.5-0.8-2.5-2.4
		c0-0.4,0-0.8,0.1-1.2c0.1-0.8,0.6-1.2,1.4-1.4c1.7-0.5,3.5-1,5.1-1.8C9.7,24.6,10.9,23.4,11.7,21.7z"/>
	<path fill="#35A6DE" d="M35,21.7c-1.1-0.2-2.2-0.2-3.2-0.5c-5.2-1.1-8.4-5.2-8.3-10.5c0.1-5.1,3.8-9.5,8.8-10.3
		c5.7-1,10.5,2.2,12,8.1c2,8-1.3,17.9-10.2,22.1c-2.1,1-4.4,1.6-6.8,1.6c-1.6,0-2.4-0.7-2.5-2.2c0-0.5,0-1.1,0.1-1.6
		c0.2-0.7,0.6-1,1.3-1.2c1.7-0.5,3.5-1.1,5.1-1.8c1.3-0.6,2.4-1.6,3.1-2.8C34.7,22.3,34.8,22,35,21.7z"/>
</g>
</svg>
