<?xml version="1.0" encoding="utf-8"?>
<!-- Generator: Adobe Illustrator 18.1.1, SVG Export Plug-In . SVG Version: 6.00 Build 0)  -->
<svg version="1.1" xmlns="http://www.w3.org/2000/svg" xmlns:xlink="http://www.w3.org/1999/xlink" x="0px" y="0px"
	 viewBox="0 0 50 50" enable-background="new 0 0 50 50" xml:space="preserve">
<g id="Layer_2">
</g>
<g id="Layer_1">
	<rect x="7.9" y="40" fill="#FFFFFF" width="34.8" height="0.8"/>
	<rect x="9.1" y="28.5" fill="#FFFFFF" width="0.9" height="13.4"/>
	<rect x="6.9" y="24" fill="#FFFFFF" width="37.4" height="1"/>
	<path fill="none" d="M25.6,25.1l0.5-0.5l1.1-1.1c0,0,0,0,0-0.1l0.8-0.8c0.3-0.3,0.3-0.8,0-1.1c-0.3-0.3-0.8-0.3-1.1,0l-1.6,1.6
		c0,0,0,0,0,0.1l-0.3,0.3l-0.7-0.7c-0.3-0.3-0.8-0.3-1.1,0c-0.3,0.3-0.3,0.8,0,1.1l1.2,1.2"/>
	<path fill="none" d="M24.7,21.3L24.7,21.3C24.6,21.3,24.6,21.3,24.7,21.3C24.6,21.3,24.6,21.3,24.7,21.3z"/>
	<path fill="#8AC547" d="M24.6,21.3L24.6,21.3C24.6,21.3,24.6,21.3,24.6,21.3C24.6,21.3,24.6,21.3,24.6,21.3z"/>
	<path fill="#8AC547" d="M24.7,21.3L24.7,21.3C24.6,21.3,24.6,21.3,24.7,21.3C24.6,21.3,24.6,21.3,24.7,21.3z"/>
	<path fill="#F2F2F2" d="M24.7,21.3L24.7,21.3C24.6,21.3,24.6,21.3,24.7,21.3C24.6,21.3,24.6,21.3,24.7,21.3z"/>
	<g>
		<path fill="none" d="M41.9,8.6V7.9h-0.7C41.5,8.1,41.7,8.3,41.9,8.6z"/>
		<path fill="#F2F2F2" d="M8.5,41.3c0,0,0.1,0.1,0.1,0.1v-0.1H8.5z"/>
		<path fill="#F2F2F2" d="M10,41v1.4c4,3.7,9,6,15,6V41H10z"/>
		<path fill="#F2F2F2" d="M48.6,24C48.3,18,46,13.5,43,9.7V24H48.6z"/>
		<path fill="#F2F2F2" d="M42,24V8.6C42,8.3,41.5,8,41.3,8H26v16H42z"/>
		<path fill="#F2F2F2" d="M25,1.6C20,1.6,14.4,4,10.4,7H25V1.6z"/>
		<path fill="#F2F2F2" d="M9,8.6C5,12.5,2.2,18,1.9,24H9V8.6z"/>
		<path fill="#F2F2F2" d="M9,40V25H1.9c0,0,0,0,0,0.1C1.8,31.3,4,36.7,8,40.8V40H9z"/>
		<path fill="#F2F2F2" d="M26,41v7.4c6-0.2,12-2.8,16-6.9V41H26z"/>
		<path fill="#F2F2F2" d="M43,40.3c3-4.1,5.7-9.3,5.7-15.2c0-0.1,0-0.1,0-0.1H43V40.3z"/>
		<path fill="#F2F2F2" d="M40.1,7C36.3,4,31,1.8,26,1.6V7H40.1z"/>
		<rect x="26" y="25" fill="#F2F2F2" width="16" height="15"/>
		<rect x="10" y="25" fill="#F2F2F2" width="15" height="15"/>
		<rect x="10" y="8" fill="#F2F2F2" width="15" height="16"/>
		<path fill="#FFFFFF" d="M26,8h15.3c-0.4,0-0.7-1-1.1-1H26V8z"/>
		<path fill="#FFFFFF" d="M10,8h15V7H10.4C10.1,7,10,7.4,10,7.6V8z"/>
		<rect x="26" y="24" fill="#FFFFFF" width="16" height="1"/>
		<path fill="#FFFFFF" d="M9,24H1.9c0,0,0,0,0,1H9V24z"/>
		<path fill="#FFFFFF" d="M43,24v1h5.7c0-1,0-1,0-1H43z"/>
		<rect x="10" y="24" fill="#FFFFFF" width="15" height="1"/>
		<path fill="#FFFFFF" d="M8.1,41.3h0.4c-0.1-0.1-0.3-0.3-0.4-0.4V41.3z"/>
		<rect x="26" y="40" fill="#FFFFFF" width="16" height="1"/>
		<rect x="10" y="40" fill="#FFFFFF" width="15" height="1"/>
		<path fill="#FFFFFF" d="M8.6,40.3H8.1v0.6c0.1,0.1,0.3,0.3,0.4,0.4h0.1V40.3z"/>
		<path fill="#FFFFFF" d="M41.9,41.3v0.2c0.1-0.1,0.1-0.1,0.2-0.2H41.9z"/>
		<path fill="#FFFFFF" d="M42,25v15h1v0.4c0,0,0,0,0-0.1V25H42z"/>
		<path fill="#FFFFFF" d="M42,24h1V9.7c0-0.4-1-0.7-1-1.1V24z"/>
		<rect x="41.9" y="23.7" fill="#FFFFFF" width="1" height="1"/>
		<path fill="#FFFFFF" d="M42.1,41.3c0.3-0.3,0.5-0.6,0.8-0.9v-0.1h-0.9v1H42.1z"/>
		<rect x="25" y="8" fill="#FFFFFF" width="1" height="16"/>
		<path fill="#FFFFFF" d="M26,7V1.6c0,0-0.6,0-0.9,0c0,0-0.1,0-0.1,0V7H26z"/>
		<rect x="25" y="25" fill="#FFFFFF" width="1" height="15"/>
		<path fill="#FFFFFF" d="M25,41v7.4c0,0,0.1,0,0.1,0c0.3,0,0.9,0,0.9,0V41H25z"/>
		<rect x="25.1" y="6.9" fill="#FFFFFF" width="1" height="1"/>
		<rect x="25.1" y="23.7" fill="#FFFFFF" width="1" height="1"/>
		<rect x="25.1" y="40.3" fill="#FFFFFF" width="1" height="1"/>
		<path fill="#FFFFFF" d="M10,24V8H9.3C9,8,9,8.4,9,8.6V24H10z"/>
		<path fill="#FFFFFF" d="M8.6,41.3v0.1c0.3,0.3,0.7,0.7,1,1v-1.1H8.6z"/>
		<rect x="9" y="25" fill="#FFFFFF" width="1" height="15"/>
		<path fill="#FFFFFF" d="M9.3,7.9h0.3V7.6C9.5,7.7,9.4,7.8,9.3,7.9z"/>
		<rect x="8.6" y="23.7" fill="#FFFFFF" width="1" height="1"/>
		<rect x="8.6" y="40.3" fill="#FFFFFF" width="1" height="1"/>
	</g>
	<g>
		<g>
			<path fill="#41A7DE" stroke="#FFFFFF" stroke-linecap="round" stroke-miterlimit="10" d="M43.4,9.4"/>
		</g>
		<g>
			<path fill="#41A7DE" d="M21.9,40.9l-5.1-11.6l-5.3,10.9l-2.3-3.7l-1.7,3.4c-0.1,0.2-0.4,0.3-0.7,0.2c-0.2-0.1-0.3-0.4-0.2-0.7
				l2.5-5l2.3,3.7l5.5-11.2l4.9,11.2l3.2-9.6l4,4.1l5.8-16.5l4.5,5.7c0.2,0.2,0.1,0.5-0.1,0.7c-0.2,0.2-0.5,0.1-0.7-0.1l-3.4-4.3
				l-5.7,16.3l-3.9-4.1L21.9,40.9z"/>
		</g>
		<g>
			<path fill="#41A7DE" stroke="#FFFFFF" stroke-linecap="round" stroke-miterlimit="10" d="M7,39.6"/>
		</g>
		<g>
			<path fill="#41A7DE" d="M21.9,40.9l-5.1-11.6l-5.3,10.9l-2.8-4.5c-0.1-0.2-0.1-0.5,0.2-0.7c0.2-0.1,0.5-0.1,0.7,0.2l1.8,2.9
				l5.5-11.2l4.9,11.2l3.2-9.6l4,4.1l5.8-16.5l4,5l4-11.5c0.1-0.3,0.4-0.4,0.6-0.3c0.3,0.1,0.4,0.4,0.3,0.6l-4.6,13.2l-4-5
				l-5.7,16.3l-3.9-4.1L21.9,40.9z"/>
		</g>
	</g>
</g>
</svg>
