<svg width="2em" height="2em" version="1.1" id="Layer_1" xmlns="http://www.w3.org/2000/svg" xmlns:xlink="http://www.w3.org/1999/xlink" x="0px" y="0px"
	 viewBox="0 0 35 35" enable-background="new 0 0 35 35" xml:space="preserve">
<g>
	<path fill="#F2F2F2" d="M8.4,28.8c1.1-0.6,2.3-1,3.6-1.4c3-1,3.2-1.9,1.1-4.1c-2.9-3-3.1-6.6-2.1-10.3c0.8-2.8,4.2-4.4,7.7-3.9
		c3.4,0.5,5.5,2.6,5.7,5.8c0.2,3.2-0.5,6.2-2.9,8.6c-1.7,1.7-1.4,2.8,0.9,3.7c1,0.4,2,0.6,2.9,1c1,0.4,2,1.1,2.7,2
		c3.6-3,5.9-7.5,5.9-12.6c0-9.1-7.4-16.4-16.4-16.4S1,8.6,1,17.7c0,5,2.3,9.5,5.8,12.5C7.3,29.6,7.8,29.2,8.4,28.8z"/>
	<path fill="#99D240" d="M28,30.3c-0.7-0.9-1.6-1.6-2.7-2c-1-0.4-2-0.7-2.9-1c-2.2-0.9-2.6-2-0.9-3.7c2.4-2.4,3.1-5.4,2.9-8.6
		c-0.2-3.2-2.3-5.3-5.7-5.8c-3.5-0.5-7,1-7.7,3.9c-1,3.7-0.7,7.3,2.1,10.3c2.1,2.2,1.9,3-1.1,4.1c-1.2,0.4-2.4,0.8-3.6,1.4
		c-0.6,0.3-1.2,0.8-1.6,1.4c2.9,2.4,6.6,3.9,10.6,3.9C21.5,34.1,25.1,32.7,28,30.3z"/>
</g>
</svg>
