<svg width="2em" height="2em" version="1.1" id="Layer_1" xmlns="http://www.w3.org/2000/svg" xmlns:xlink="http://www.w3.org/1999/xlink" x="0px" y="0px"
	 viewBox="0 0 35 35" enable-background="new 0 0 35 35" xml:space="preserve">
<g>
	<path fill="#F2F2F2" d="M8.4,28.8c1.1-0.6,2.3-1,3.6-1.4c3-1,3.2-1.9,1.1-4.1c-2.9-3-3.1-6.6-2.1-10.3c0.1-0.5,0.3-0.9,0.6-1.3
		L9,10.3l8.9-5.2l8.9,5.2l-0.8,0.5l3.2,6L26.5,16l-1.8-4.6l-1.2,0.7c0.5,0.8,0.8,1.8,0.9,2.9c0.2,3.2-0.5,6.2-2.9,8.6
		c-1.7,1.7-1.4,2.8,0.9,3.7c1,0.4,2,0.6,2.9,1c1,0.4,2,1.1,2.7,2c3.6-3,5.9-7.5,5.9-12.6c0-9.1-7.4-16.4-16.4-16.4S1,8.6,1,17.7
		c0,5,2.3,9.5,5.8,12.5C7.3,29.6,7.8,29.2,8.4,28.8z"/>
	<path fill="#35A6DE" d="M28,30.3c-0.7-0.9-1.6-1.6-2.7-2c-1-0.4-2-0.7-2.9-1c-2.2-0.9-2.6-2-0.9-3.7c2.4-2.4,3.1-5.4,2.9-8.6
		c-0.1-1.1-0.4-2.1-0.9-2.9l1.2-0.7l1.8,4.6l2.6,0.7l-3.2-6l0.8-0.5l-8.9-5.2L9,10.3l2.6,1.5c-0.3,0.4-0.5,0.8-0.6,1.3
		c-1,3.7-0.7,7.3,2.1,10.3c2.1,2.2,1.9,3-1.1,4.1c-1.2,0.4-2.4,0.8-3.6,1.4c-0.6,0.3-1.2,0.8-1.6,1.4c2.9,2.4,6.6,3.9,10.6,3.9
		C21.5,34.1,25.1,32.7,28,30.3z"/>
</g>
</svg>
