<?xml version="1.0" encoding="utf-8"?>
<!-- Generator: Adobe Illustrator 19.2.1, SVG Export Plug-In . SVG Version: 6.00 Build 0)  -->
<svg version="1.1" xmlns="http://www.w3.org/2000/svg" xmlns:xlink="http://www.w3.org/1999/xlink" x="0px" y="0px"
	 viewBox="0 0 600 600" enable-background="new 0 0 600 600" xml:space="preserve">
<g id="Layer_7">
	<rect x="2" fill="#FFFFFF" width="598" height="598"/>
</g>
<g id="Layer_6">
</g>
<g id="Layer_1">
</g>
<g id="Layer_2">
</g>
<g id="Layer_2_copy">
</g>
<g id="Layer_5">
	<line fill="none" stroke="#A6A8AB" stroke-width="3" stroke-miterlimit="10" x1="275.8" y1="131.1" x2="119.8" y2="287.1"/>
	<path fill="none" stroke="#A6A8AB" stroke-width="2" stroke-miterlimit="10" d="M322.6,441.5"/>
	<path fill="none" stroke="#A6A8AB" stroke-width="2" stroke-miterlimit="10" d="M322.9,441.8"/>
	<path fill="none" stroke="#A6A8AB" stroke-width="3" stroke-miterlimit="10" d="M429.1,597.1"/>
	<line fill="none" stroke="#A6A8AB" stroke-width="3" stroke-miterlimit="10" x1="0.1" y1="286.6" x2="591" y2="286.6"/>
	<line fill="none" stroke="#A6A8AB" stroke-width="3" stroke-miterlimit="10" x1="120.5" y1="286.9" x2="433.5" y2="598.7"/>
	
		<rect x="224.4" y="344.6" transform="matrix(0.7071 -0.7071 0.7071 0.7071 -186.0864 279.1553)" fill="#FFFFFF" width="39" height="39.3"/>
	<rect x="19.3" y="308.9" opacity="0.54" fill="#FFFFFF" width="168.6" height="49.5"/>
	<circle fill="#61C1A2" cx="120.5" cy="286.9" r="21.9"/>
	<circle fill="#61C1A2" cx="275.1" cy="439.7" r="21.9"/>
	<circle fill="#61C1A2" cx="430.4" cy="287" r="21.9"/>
	<rect x="33.7" y="315.6" fill="none" width="162.3" height="53.8"/>
	<text transform="matrix(1 0 0 1 33.668 329.0128)"><tspan x="0" y="0" fill="#808080" font-family="'Calibri'" font-size="19.8083px">Quadratic Factors </tspan><tspan x="0" y="23.8" fill="#808080" font-family="'Calibri'" font-size="19.8083px">where a=1</tspan></text>
	<rect x="304.5" y="420.2" fill="none" width="216.9" height="41.4"/>
	<text transform="matrix(1 0 0 1 304.4937 433.6514)"><tspan x="0" y="0" fill="#808080" font-family="'Calibri'" font-size="19.8083px">Quadratic Factors </tspan><tspan x="0" y="23.8" fill="#808080" font-family="'Calibri'" font-size="19.8083px">where a&gt;1</tspan></text>
	<rect x="213.5" y="215.7" fill="none" width="202" height="41.4"/>
	<text transform="matrix(1 0 0 1 213.5445 229.1573)"><tspan x="0" y="0" fill="#808080" font-family="'Calibri'" font-size="19.8083px">Simplifying Algebraic </tspan><tspan x="0" y="23.8" fill="#808080" font-family="'Calibri'" font-size="19.8083px">Fractions using Factors</tspan></text>
	<rect x="331.7" y="315.6" fill="none" width="220.6" height="47.7"/>
	<text transform="matrix(1 0 0 1 331.6793 329.0128)"><tspan x="0" y="0" fill="#808080" font-family="'Calibri'" font-size="19.8083px">Multiplication and Division </tspan><tspan x="0" y="23.8" fill="#808080" font-family="'Calibri'" font-size="19.8083px">of Algebraic Fractions</tspan></text>
	<rect x="495" y="215.7" fill="none" width="100.4" height="41.4"/>
	<text transform="matrix(1 0 0 1 494.9997 229.1568)"><tspan x="0" y="0" fill="#808080" font-family="'Calibri'" font-size="19.8083px">Introductio</tspan><tspan x="0" y="23.8" fill="#808080" font-family="'Calibri'" font-size="19.8083px">n Algebraic</tspan></text>
	<path fill="none" stroke="#A6A8AB" stroke-width="2" stroke-miterlimit="10" d="M275.3,287"/>
	<path fill="none" stroke="#A6A8AB" stroke-width="2" stroke-miterlimit="10" d="M120.5,286.9"/>
	
		<polyline fill="none" stroke="#A6A8AB" stroke-width="3" stroke-linecap="round" stroke-linejoin="round" stroke-miterlimit="10" points="
		33.9,274.8 45.8,286.7 33.9,298.5 	"/>
	
		<polyline fill="none" stroke="#A6A8AB" stroke-width="3" stroke-linecap="round" stroke-linejoin="round" stroke-miterlimit="10" points="
		190.4,274.8 202.3,286.7 190.4,298.5 	"/>
	
		<polyline fill="none" stroke="#A6A8AB" stroke-width="3" stroke-linecap="round" stroke-linejoin="round" stroke-miterlimit="10" points="
		342.8,274.8 354.6,286.7 342.8,298.5 	"/>
	
		<polyline fill="none" stroke="#A6A8AB" stroke-width="3" stroke-linecap="round" stroke-linejoin="round" stroke-miterlimit="10" points="
		499.2,274.8 511.1,286.7 499.2,298.5 	"/>
	<path fill="none" stroke="#A6A8AB" stroke-width="3" stroke-linecap="round" stroke-linejoin="round" stroke-miterlimit="10" d="
		M273.6,597.6"/>
	<path fill="none" stroke="#A6A8AB" stroke-width="3" stroke-linecap="round" stroke-linejoin="round" stroke-miterlimit="10" d="
		M261.7,585.8"/>
	
		<polyline fill="none" stroke="#A6A8AB" stroke-width="3" stroke-linecap="round" stroke-linejoin="round" stroke-miterlimit="10" points="
		352.9,501.6 352.9,518.4 336.1,518.4 	"/>
	
		<polyline fill="none" stroke="#A6A8AB" stroke-width="3" stroke-linecap="round" stroke-linejoin="round" stroke-miterlimit="10" points="
		236.8,386 236.8,402.8 220,402.8 	"/>
	<rect x="266.4" y="434.2" fill="none" width="29.4" height="25.4"/>
	<text transform="matrix(1 0 0 1 266.3902 445.878)" fill="#FFFFFF" font-family="'Calibri-Bold'" font-size="17.2917px">HL</text>
	<rect x="373.6" y="535.8" opacity="0.54" fill="#FFFFFF" width="154" height="33.4"/>
	<rect x="381.8" y="520.6" fill="none" width="143.4" height="41.4"/>
	<text transform="matrix(1 0 0 1 381.775 534.0079)"><tspan x="0" y="0" fill="#808080" font-family="'Calibri'" font-size="19.8083px">Expressions With </tspan><tspan x="0" y="23.8" fill="#808080" font-family="'Calibri'" font-size="19.8083px">Three Factors</tspan></text>
	
		<rect x="181.2" y="341.9" transform="matrix(0.7071 0.7071 -0.7071 0.7071 315.4506 -33.9676)" fill="#FFFFFF" width="35.1" height="43.9"/>
	
		<polyline fill="none" stroke="#A6A8AB" stroke-width="3" stroke-linecap="round" stroke-linejoin="round" stroke-miterlimit="10" points="
		221.6,325.7 238.4,325.7 238.4,342.5 	"/>
	<polyline fill="none" stroke="#A6A8AB" stroke-width="3" stroke-miterlimit="10" points="120.8,599.4 120.8,443 278,285.8 	"/>
	<circle fill="#61C1A2" cx="276.9" cy="285.4" r="21.9"/>
	<rect x="192.1" y="59.8" fill="none" width="295" height="53.8"/>
	<text transform="matrix(1 0 0 1 192.0748 73.2471)"><tspan x="0" y="0" fill="#808080" font-family="'Calibri'" font-size="19.8083px">Solving Quadratic Equations by</tspan><tspan x="0" y="23.8" fill="#808080" font-family="'Calibri'" font-size="19.8083px">Factorising the Trinomial </tspan></text>
	<circle fill="#ED3E95" cx="276.2" cy="130.2" r="21.9"/>
	
		<polyline fill="none" stroke="#A6A8AB" stroke-width="2" stroke-linecap="round" stroke-linejoin="round" stroke-miterlimit="10" points="
		190.2,199.7 207,199.7 207,216.5 	"/>
</g>
<g id="Layer_8">
</g>
<g id="Layer_4">
</g>
<g id="Layer_9">
	<g>
		<circle fill="none" cx="300.3" cy="300" r="298"/>
		<g>
			<path fill="none" d="M300.3,2C135.7,2,2.3,135.4,2.3,300s133.4,298,298,298c163.1,0,295.5-131,297.9-293.5
				c-3.7,2.7-8.2,4.4-13.1,4.4c-12.1,0-21.9-9.8-21.9-21.9s9.8-21.9,21.9-21.9c4.2,0,8.2,1.2,11.5,3.3C580.8,118.7,454.2,2,300.3,2z
				"/>
			<path fill="#61C1A2" d="M563.2,287c0,12.1,9.8,21.9,21.9,21.9c4.9,0,9.5-1.6,13.1-4.4c0-1.5,0.1-3,0.1-4.5
				c0-10.7-0.6-21.2-1.7-31.6c-3.3-2.1-7.3-3.3-11.5-3.3C573,265.1,563.2,274.9,563.2,287z"/>
			<path fill="#F3F3F3" d="M300.3,598c-164.6,0-298-133.4-298-298S135.7,2,300.3,2c153.9,0,280.6,116.7,296.3,266.4
				c0.8,0.5,1.6,1.1,2.4,1.7V-1H0v600h599V303.9c-0.3,0.2-0.5,0.4-0.8,0.6C595.8,467,463.3,598,300.3,598z"/>
			<path fill="#F3F3F3" d="M596.6,268.4c1.1,10.4,1.7,20.9,1.7,31.6c0,1.5,0,3-0.1,4.5c0.3-0.2,0.5-0.4,0.8-0.6v-33.8
				C598.2,269.5,597.4,268.9,596.6,268.4z"/>
		</g>
	</g>
</g>
</svg>
