<?xml version="1.0" encoding="utf-8"?>
<!-- Generator: Adobe Illustrator 19.2.1, SVG Export Plug-In . SVG Version: 6.00 Build 0)  -->
<svg version="1.1" xmlns="http://www.w3.org/2000/svg" xmlns:xlink="http://www.w3.org/1999/xlink" x="0px" y="0px"
	 viewBox="0 0 600 600" enable-background="new 0 0 600 600" xml:space="preserve">
<g id="Layer_2">
</g>
<g id="Layer_1">
	<path fill="#9CA1A4" d="M360.3,13.8c-19-3.9-38.6-5.9-58.8-5.9c-121,0-224.7,73.6-268.9,178.6l266.2,114.3L360.3,13.8z"/>
	<path fill="#FFFFFF" d="M360.3,13.8l1.2-5.9c-19.4-4-39.4-6-60-6c-61.7,0-119.1,18.8-166.6,51C87.4,85,49.6,130.5,27.1,184.1
		l-2.3,5.5l278.5,119.6L367.5,9.1l-6-1.2L360.3,13.8l-5.9-1.3l-60,279.8L35,180.8l-2.4,5.6l5.6,2.3c21.6-51.4,57.9-95.1,103.5-126
		c45.6-30.9,100.6-48.9,159.9-48.9c19.7,0,39,2,57.6,5.8L360.3,13.8l-5.9-1.3L360.3,13.8z"/>
	<path fill="#35A7DE" d="M590.8,300.7c0,161.1-130.6,289.3-291.7,289.3c-116.6,0-217.1-68.4-263.9-167.2l262-122L590.8,300.7z"/>
	<path fill="#FFFFFF" d="M590.8,300.7h-6c0,78.9-31.9,149.6-83.6,200.7c-51.7,51.1-123.1,82.5-202,82.5
		c-57.1,0-110.2-16.7-154.8-45.6c-44.6-28.8-80.7-69.8-103.5-118.2l-5.5,2.6l2.6,5.5l260.8-121.5l292.2,0V300.7h-6H590.8v-6
		l-294.9,0L27.2,419.8l2.6,5.5c23.8,50.4,61.4,93.1,107.9,123.1c46.5,30.1,101.9,47.5,161.4,47.5c82.2,0,156.6-32.7,210.5-86
		c53.9-53.3,87.2-127.1,87.2-209.3v-6h-6V300.7z"/>
	<path fill="#DCDDDE" d="M358.2,16.3C491.1,43.5,591.1,161,591.1,302H297.2L358.2,16.3z"/>
	<path fill="#FFFFFF" d="M358.2,13.1l-1.2,5.9c65.1,13.3,122.1,48.8,162.8,98.1c40.8,49.4,65.2,112.6,65.2,181.7h6v-6H304.7
		l59.4-278.4L358.2,13.1l-1.2,5.9L358.2,13.1l-5.9-1.3l-62.5,293.1h307.4v-6c0-71.9-25.5-137.9-68-189.4
		C486.7,58,427.2,21.1,359.4,7.2L353.5,6l-1.3,5.9L358.2,13.1z"/>
	<path fill="#B7B9BB" d="M34.9,422.2C18.3,385.6,9,344.9,9,302c0-40.8,8.4-79.7,23.5-114.9l266.3,115.3L34.9,422.2z"/>
	<path fill="#FFFFFF" d="M34.9,422.2l5.5-2.5C24.1,383.8,15.1,344,15.1,302c0-40,8.2-78,23-112.6l-5.6-2.4l-2.4,5.5l253.8,109.9
		L32.4,416.7L34.9,422.2l5.5-2.5L34.9,422.2l2.5,5.5l276.4-125.5L29.4,179.1l-2.4,5.6C11.6,220.7,3,260.4,3,302
		c0,43.7,9.4,85.3,26.4,122.7l2.5,5.5l5.5-2.5L34.9,422.2z"/>
	<g>
		<path fill="#77787B" d="M396.4,202.1h9.6v-27.2l1-4.7l-3.3,4.1l-6.1,4.2l-3.8-5.2l15.7-12.7h5v41.5h9.4v7.6h-27.5V202.1z"/>
		<path fill="#77787B" d="M446.7,200.2c0-0.9-0.4-1.7-1.2-2.2c-0.8-0.6-1.7-1.1-2.9-1.5c-1.1-0.5-2.4-0.9-3.8-1.4
			c-1.4-0.5-2.6-1.1-3.8-2c-1.1-0.8-2.1-1.9-2.9-3.2s-1.2-3-1.2-5.1c0-3.4,1-6,3-7.8c2-1.8,4.9-2.7,8.7-2.7c2.6,0,5,0.3,7.1,0.8
			c2.1,0.6,3.8,1.2,5,1.9l-2,6.5c-1.1-0.4-2.4-0.8-4-1.3c-1.6-0.5-3.2-0.7-4.9-0.7c-2.7,0-4,1-4,3.1c0,0.8,0.4,1.5,1.2,2
			c0.8,0.5,1.7,1,2.9,1.4c1.1,0.4,2.4,0.9,3.8,1.4c1.4,0.5,2.6,1.2,3.8,2c1.1,0.8,2.1,1.8,2.9,3.1c0.8,1.3,1.2,2.9,1.2,5
			c0,3.5-1.1,6.2-3.3,8.2c-2.2,2-5.6,3-10,3c-2.4,0-4.7-0.3-6.9-0.9s-3.9-1.3-5.2-2.2l2.5-6.7c1.1,0.6,2.5,1.2,4.2,1.8
			c1.7,0.6,3.5,0.9,5.4,0.9c1.3,0,2.4-0.3,3.2-0.8C446.3,202.2,446.7,201.4,446.7,200.2z"/>
		<path fill="#77787B" d="M457.9,175.2h4.8v-6.5l9-2.5v9h8.4v7.6h-8.4V196c0,2.4,0.2,4.1,0.7,5.1s1.4,1.5,2.7,1.5
			c0.9,0,1.7-0.1,2.4-0.3c0.7-0.2,1.4-0.5,2.2-0.8l1.6,6.9c-1.2,0.6-2.7,1.1-4.3,1.5c-1.7,0.4-3.3,0.6-5,0.6c-3.2,0-5.5-0.8-7-2.4
			c-1.5-1.6-2.2-4.3-2.2-8v-17.4h-4.8V175.2z"/>
	</g>
	<g>
		<path fill="#FFFFFF" d="M189.6,131.7c0,2.3-0.4,4.7-1.3,7.1c-0.9,2.4-1.9,4.7-3.2,7c-1.3,2.3-2.8,4.5-4.3,6.6
			c-1.6,2.1-3.1,4.1-4.6,5.9l-3.7,2.8v0.3l5-1h13.2v7.6h-29v-4.6c1.1-1.1,2.3-2.5,3.7-4c1.4-1.5,2.8-3.2,4.2-4.9
			c1.4-1.7,2.8-3.5,4.1-5.3c1.3-1.8,2.5-3.7,3.6-5.5c1.1-1.9,1.9-3.7,2.5-5.4c0.6-1.7,0.9-3.4,0.9-5c0-1.9-0.5-3.4-1.6-4.6
			c-1.1-1.2-2.8-1.8-5.1-1.8c-1.5,0-3,0.3-4.5,0.9c-1.5,0.6-2.8,1.4-3.9,2.4l-3.6-6.3c1.8-1.5,3.8-2.7,6.1-3.5
			c2.3-0.9,4.9-1.3,8-1.3c2,0,3.8,0.3,5.4,0.8c1.7,0.6,3.1,1.4,4.3,2.4c1.2,1.1,2.1,2.4,2.8,4S189.6,129.6,189.6,131.7z"/>
		<path fill="#FFFFFF" d="M221,168.2v-19.6c0-2.8-0.4-4.8-1.2-6.1c-0.8-1.2-2.2-1.9-4.1-1.9c-1.7,0-3.1,0.5-4.3,1.5
			c-1.2,1-2,2.2-2.5,3.7v22.3h-9v-34.4h7.1l1,4.5h0.3c1.1-1.5,2.5-2.8,4.2-3.9c1.7-1.1,4-1.7,6.8-1.7c1.7,0,3.2,0.2,4.5,0.7
			c1.3,0.5,2.5,1.2,3.4,2.3c0.9,1.1,1.6,2.5,2.1,4.3c0.5,1.8,0.7,4.1,0.7,6.7v21.4H221z"/>
		<path fill="#FFFFFF" d="M266.7,156c0,1.9,0,3.9,0.1,5.8c0,1.9,0.3,4.1,0.6,6.4H261l-1.2-4.5h-0.3c-0.9,1.6-2.2,2.9-4,3.9
			s-3.8,1.5-6.1,1.5c-4.3,0-7.7-1.4-10.1-4.3c-2.4-2.8-3.6-7.3-3.6-13.4c0-5.9,1.3-10.4,4-13.7c2.7-3.3,6.6-4.9,11.7-4.9
			c1.4,0,2.6,0.1,3.5,0.2c0.9,0.2,1.8,0.4,2.8,0.8v-14h9V156z M251.5,161.5c1.7,0,3.1-0.4,4.1-1.3c1-0.8,1.7-2.1,2.1-3.7V142
			c-0.6-0.5-1.4-0.9-2.1-1.1c-0.8-0.3-1.8-0.4-3-0.4c-2.5,0-4.4,0.9-5.7,2.5c-1.3,1.7-1.9,4.6-1.9,8.7c0,2.9,0.5,5.3,1.6,7.1
			C247.6,160.6,249.2,161.5,251.5,161.5z"/>
	</g>
	<g>
		<path fill="#FFFFFF" d="M71.3,318c2.8,0,5-0.8,6.5-2.3c1.5-1.5,2.2-3.4,2.2-5.5c0-2.6-0.8-4.5-2.3-5.8c-1.6-1.2-4-1.9-7.4-1.9h-5
			v-4.8l8.3-11.4l3.9-3.1l-5.4,0.6H60.6v-7.6h26.3v4.9l-9.7,13l-3,1.9v0.3l2.9-0.4c1.6,0.1,3.1,0.5,4.6,1.1c1.4,0.6,2.7,1.5,3.8,2.6
			c1.1,1.1,1.9,2.5,2.6,4.2c0.6,1.7,1,3.6,1,5.7c0,2.7-0.4,5.1-1.3,7c-0.9,2-2.1,3.6-3.7,5c-1.6,1.3-3.4,2.3-5.5,3
			c-2.1,0.6-4.4,1-6.8,1c-2,0-4.1-0.2-6.3-0.6c-2.2-0.4-3.9-0.9-5.2-1.6l2.4-7.4c1.2,0.6,2.5,1.1,4,1.4
			C67.9,317.9,69.5,318,71.3,318z"/>
		<path fill="#FFFFFF" d="M116.7,298.6c-1.4-0.5-2.7-0.8-3.9-0.8c-1.6,0-3,0.4-4,1.3c-1.1,0.9-1.8,1.9-2.2,3.3v22.2h-9v-34.4h7
			l1,4.5h0.3c0.8-1.7,1.8-3,3.2-3.9c1.3-0.9,2.9-1.4,4.7-1.4c1.2,0,2.5,0.3,4.1,0.8L116.7,298.6z"/>
		<path fill="#FFFFFF" d="M151.1,312.5c0,1.9,0,3.9,0.1,5.8c0,1.9,0.3,4.1,0.6,6.4h-6.4l-1.2-4.5h-0.3c-0.9,1.6-2.2,2.9-4,3.9
			s-3.8,1.5-6.1,1.5c-4.3,0-7.7-1.4-10.1-4.3c-2.4-2.8-3.6-7.3-3.6-13.4c0-5.9,1.3-10.4,4-13.7c2.7-3.3,6.6-4.9,11.7-4.9
			c1.4,0,2.6,0.1,3.5,0.2c0.9,0.2,1.8,0.4,2.8,0.8v-14h9V312.5z M135.9,318c1.7,0,3.1-0.4,4.1-1.3c1-0.8,1.7-2.1,2.1-3.7v-14.6
			c-0.6-0.5-1.4-0.9-2.1-1.1c-0.8-0.3-1.8-0.4-3-0.4c-2.5,0-4.4,0.9-5.7,2.5c-1.3,1.7-1.9,4.6-1.9,8.7c0,2.9,0.5,5.3,1.6,7.1
			C132,317.1,133.6,318,135.9,318z"/>
	</g>
	<g>
		<path fill="#FFFFFF" d="M334.1,422.5h-14.1v39.8h-9.4v-39.8h-14.1v-8.4h37.6V422.5z"/>
		<path fill="#FFFFFF" d="M350.6,444.4l-15.8-30.3H346l8.8,18.1l1,5.1h0.3l1-5.2l8.5-18h10.1L360,444.3v18h-9.4V444.4z"/>
	</g>
</g>
</svg>
