<?xml version="1.0" encoding="utf-8"?>
<!-- Generator: Adobe Illustrator 18.1.1, SVG Export Plug-In . SVG Version: 6.00 Build 0)  -->
<svg version="1.1" id="Layer_1" xmlns="http://www.w3.org/2000/svg" xmlns:xlink="http://www.w3.org/1999/xlink" x="0px" y="0px"
	 viewBox="0 0 50 50" enable-background="new 0 0 50 50" xml:space="preserve">
<circle fill="#F2F2F2" cx="25.3" cy="25" r="23.4"/>
<path fill="#999999" d="M17.4,41.4c-1.7-0.3-3.7-0.7-4.1-2.9c-0.5-2.9,0.8-6.1,3-7.3c1.1-0.6,2.3-1,3.4-1.4c2.9-1,3.1-1.8,1.1-3.9
	c-2.8-2.9-3-6.4-2.1-9.9c0.7-2.8,4.1-4.2,7.5-3.7c3.3,0.5,5.3,2.5,5.5,5.6c0.2,3.1-0.4,6-2.8,8.3c-1.6,1.6-1.3,2.7,0.8,3.6
	c0.9,0.4,1.9,0.6,2.8,1c2.9,1.2,4.9,4.7,4.1,7.7c-0.7,2.6-3.4,2.9-5.5,3.3c-1.1,0.2-4.5,0.3-5.8,0.3C24.3,42.1,21.7,42.1,17.4,41.4"
	/>
<path fill="none" d="M146.4,22.1l1.7-1.7l3.4-3.4c0.1-0.1,0.1-0.1,0.1-0.2l2.7-2.7c1-1,1-2.6,0-3.5c-1-1-2.6-1-3.5,0l-5.1,5.1
	c-0.1,0.1-0.1,0.1-0.1,0.2l-0.9,0.9l-2.1-2.1c-1-1-2.6-1-3.5,0c-1,1-1,2.6,0,3.5l3.8,3.8"/>
<path fill="none" d="M143.2,9.9L143,9.7c0,0,0.1,0.1,0.1,0.1C143.2,9.8,143.2,9.8,143.2,9.9z"/>
<path fill="#8AC547" d="M143,9.7l0.2,0.2c0,0-0.1-0.1-0.1-0.1C143.1,9.7,143.1,9.7,143,9.7z"/>
<path fill="#8AC547" d="M143.2,9.9L143,9.7c0,0,0.1,0.1,0.1,0.1C143.2,9.8,143.2,9.8,143.2,9.9z"/>
<path fill="#F2F2F2" d="M143.2,9.9L143,9.7c0,0,0.1,0.1,0.1,0.1C143.2,9.8,143.2,9.8,143.2,9.9z"/>
<path fill="#40A6DE" d="M25.2,9.2L25.2,9.2c-0.5,0-0.8-0.4-0.8-0.8V4.1c0-0.5,0.4-0.8,0.8-0.8h0c0.5,0,0.8,0.4,0.8,0.8v4.3
	C26,8.9,25.7,9.2,25.2,9.2z"/>
<path fill="#40A6DE" d="M25.8,9.5L25.8,9.5c-0.3,0.3-0.9,0.3-1.2,0l-1.8-1.8c-0.3-0.3-0.3-0.9,0-1.2l0,0c0.3-0.3,0.9-0.3,1.2,0
	l1.8,1.8C26.1,8.7,26.1,9.2,25.8,9.5z"/>
<path fill="#40A6DE" d="M24.6,9.5L24.6,9.5c-0.3-0.3-0.3-0.9,0-1.2l1.8-1.8c0.3-0.3,0.9-0.3,1.2,0l0,0c0.3,0.3,0.3,0.9,0,1.2
	l-1.8,1.8C25.5,9.8,24.9,9.8,24.6,9.5z"/>
<path fill="#40A6DE" d="M14.5,15L14.5,15c-0.3,0.3-0.9,0.3-1.2,0l-3-3c-0.3-0.3-0.3-0.9,0-1.2l0,0c0.3-0.3,0.9-0.3,1.2,0l3,3
	C14.8,14.1,14.8,14.6,14.5,15z"/>
<path fill="#40A6DE" d="M15.1,14.7L15.1,14.7c0,0.5-0.4,0.8-0.8,0.8h-2.6c-0.5,0-0.8-0.4-0.8-0.8v0c0-0.5,0.4-0.8,0.8-0.8h2.6
	C14.7,13.9,15.1,14.3,15.1,14.7z"/>
<path fill="#40A6DE" d="M14.3,15.6L14.3,15.6c-0.5,0-0.8-0.4-0.8-0.8v-2.6c0-0.5,0.4-0.8,0.8-0.8h0c0.5,0,0.8,0.4,0.8,0.8v2.6
	C15.1,15.2,14.7,15.6,14.3,15.6z"/>
<path fill="#40A6DE" d="M35.3,14.7L35.3,14.7c-0.3-0.3-0.3-0.9,0-1.2l3-3c0.3-0.3,0.9-0.3,1.2,0v0c0.3,0.3,0.3,0.9,0,1.2l-3,3
	C36.2,15.1,35.7,15.1,35.3,14.7z"/>
<path fill="#40A6DE" d="M35.5,15.3L35.5,15.3c-0.5,0-0.8-0.4-0.8-0.8v-2.6c0-0.5,0.4-0.8,0.8-0.8l0,0c0.5,0,0.8,0.4,0.8,0.8v2.6
	C36.4,15,36,15.3,35.5,15.3z"/>
<path fill="#40A6DE" d="M34.7,14.5L34.7,14.5c0-0.5,0.4-0.8,0.8-0.8h2.6c0.5,0,0.8,0.4,0.8,0.8v0c0,0.5-0.4,0.8-0.8,0.8h-2.6
	C35.1,15.3,34.7,15,34.7,14.5z"/>
</svg>
