<svg width="8em" height="2em" version="1.1" id="Layer_1" xmlns="http://www.w3.org/2000/svg" xmlns:xlink="http://www.w3.org/1999/xlink" x="0px" y="0px"
	 viewBox="0 0 130 30" enable-background="new 0 0 130 30" xml:space="preserve">
<g>
	<g>
		<path fill="#ffffff" d="M27.4,9.4c-3.2,0-5.7,2.5-5.7,5.6c0,3,2.5,5.5,5.7,5.5c3.2,0,5.7-2.6,5.7-5.5C33.1,11.9,30.6,9.4,27.4,9.4
			z"/>
		<path fill="#ffffff" d="M126.4,14.1l-7.5-12.3c-0.3-0.5-1-0.9-1.5-0.9h-15.1c-0.6,0-1.2,0.4-1.5,0.9l-2,3.4H0.8C0.4,5.2,0,5.6,0,6
			v17.9c0,0.5,0.4,0.8,0.8,0.8h97.9l2,3.3c0.3,0.5,1,0.9,1.5,0.9h15.1c0.6,0,1.2-0.4,1.5-0.9l7.5-12.3
			C126.7,15.4,126.7,14.6,126.4,14.1z M17.2,9.7h-5.5v3.9H17v2.8h-5.2V23H8.6V7h8.6V9.7z M27.4,23.3c-4.9,0-8.8-3.7-8.8-8.3
			c0-4.7,4-8.4,8.8-8.4s8.8,3.6,8.8,8.4C36.2,19.6,32.3,23.3,27.4,23.3z M46.2,23H38V7h3.1v13.3h5.2V23z M57.1,9.7h-5.9v3.9h5.7v2.8
			h-5.7v3.8h5.9V23H48V7h9.1V9.7z M73.4,23h-3.5l-7-11.7h0V23h-3.1V7h3.6l7,11.7h0V7h3.1V23z M80.4,23.3c-2.2,0-5.3-1.4-5.5-4.9h3.3
			c0.2,1.6,1.3,2.1,2.2,2.1c1.2,0,2.3-0.8,2.3-2c0-1.6-1.1-1.9-3.2-2.7c-1.3-0.5-4-1.2-4-4.6c0-2.6,2.1-4.6,4.9-4.6
			c2,0,4.8,1.3,5,4.6h-3.2c-0.1-1.4-1-1.8-1.9-1.8c-1,0-1.7,0.7-1.7,1.6c0,1.4,1.1,1.7,2.8,2.2c1.4,0.4,4.4,1.5,4.4,4.9
			C85.9,21.7,83.1,23.3,80.4,23.3z M125.2,15.8l-6.8,11.3c-0.3,0.5-1,0.9-1.5,0.9h-14c-0.6,0-1.2-0.4-1.5-0.9l-1.4-2.4l-5.4-8.9
			c-0.3-0.5-0.3-1.2,0-1.7l5.4-8.9l1.5-2.4c0.3-0.5,1-0.9,1.5-0.9h13.9c0.5,0,1.2,0.4,1.5,0.9l6.9,11.3
			C125.5,14.6,125.5,15.3,125.2,15.8z"/>
	</g>
	<path fill="#ffffff" d="M124.2,15.3c-1-2.6-7.3-3-8.9-3.2c-0.3,0-2,0-2.4-0.8c-0.4-0.9,0.3-2.4,0.7-2.7l1.5-1.1
		c0.8-0.6,0.6-1.9,0.3-2c-0.3,0,0.2,0.9-0.4,1.5c-0.2,0.3-0.6,0.5-1,0.7c-0.2,0.1-0.6,0.2-0.9,0.5c-0.5,0.4-0.5,1.1-1.1,1.1
		c0,0-0.2,0-0.3-0.1c0.2-0.2,0.3-0.4,0.3-0.7c0-0.4-0.2-0.5-0.6-0.9c0.2-0.8,0.6-1.8,1.2-2.2c0.2-0.1-0.2-0.2-0.3-0.1
		c-0.7,0.5-1.1,1.3-1.3,2.1c-0.1-0.1-0.3-0.2-0.4-0.2c-0.1-0.2-0.3-0.4-0.6-0.4c-0.3,0-0.5,0.2-0.6,0.4c-0.2,0.1-0.3,0.1-0.4,0.2
		c-0.2-0.8-0.5-1.6-1.2-2.1c-0.1-0.1-0.5,0-0.4,0.1c0.7,0.5,1,1.4,1.2,2.3c-0.4,0.4-0.6,0.5-0.6,0.8c0,0.2,0.1,0.5,0.3,0.6
		c-0.1,0-0.3,0.1-0.3,0.1c-0.6,0-0.7-0.7-1.1-1.1c-0.3-0.3-0.7-0.4-0.9-0.5c-0.4-0.3-0.7-0.4-1-0.7c-0.6-0.6-0.1-1.6-0.4-1.5
		c-0.3,0.1-0.5,1.4,0.3,2l1.5,1.1c0.4,0.3,1.1,1.8,0.7,2.7c-0.4,0.8-2,0.8-2.4,0.8c-1.7,0.2-7.9,0.7-8.9,3.2c-0.4,1,2,1.4,2.9,1.7
		c1.1,0.4,1.8,0,2.3,0.1c0.8,0.3,0.7,1.3,2.1,1l1.3-0.3l0.2-0.1c0,0.2-0.1,0.4-0.1,0.6c0,0.1-0.1,0.2-0.1,0.3
		c-0.3,0.7-1.1,1.1-0.9,1.4c0.3,0.1,1-0.7,1.3-1.4v0c0.2-0.4,0.4-0.8,0.5-1.2l0,0c0,0.4,0,0.5,0,1l0.2,1.5c0.1,0.7,0-0.1,0.2,1
		c0.1,0.4,0,1.3-0.1,1.9c0,0.1-0.1,0.2-0.1,0.3c-0.3,0.7-1.1,1.1-0.9,1.4c0.3,0.1,1-0.7,1.3-1.4v0c0.4-0.8,0.7-1.7,0.6-2.3
		c0,0,0-0.1,0-0.1c-0.3-2-0.5-5.4,0.7-4.5c0,0.4,0,0.1-0.1,1c0,0.5-0.2,0.8-0.1,2.1c0,0.4,0.2,0.9,0.4,1.5c0.3,0.8,0.8,1.7,1.2,2.3
		c0.2,0.3,0.4,0.5,0.6,0.6c0.3,0.3,0.6,0.4,0.9,0.4v0c0,0,0,0,0,0c0,0,0,0,0,0v0c0,0,0,0,0,0c0.3,0,0.6-0.2,0.9-0.4
		c0.1-0.1,0.3-0.3,0.6-0.6c0.4-0.6,0.9-1.5,1.2-2.3c0.2-0.6,0.4-1.1,0.4-1.5c0.1-1.3-0.1-1.7-0.1-2.1c-0.1-0.9-0.1-0.6-0.1-1
		c1.3-0.9,1,2.5,0.7,4.5c0,0,0,0.1,0,0.1c-0.1,0.6,0.2,1.5,0.6,2.3v0c0.4,0.6,1.1,1.5,1.3,1.4c0.2-0.2-0.5-0.7-0.9-1.4
		c0-0.1-0.1-0.2-0.1-0.3c-0.2-0.7-0.2-1.5-0.1-1.9c0.2-1.1,0.1-0.3,0.2-1l0.2-1.5c0-0.5,0-0.7,0-1c0.1,0.4,0.3,0.8,0.5,1.1v0
		c0.4,0.6,1.1,1.5,1.3,1.4c0.2-0.2-0.5-0.7-0.9-1.4c0-0.1-0.1-0.2-0.1-0.3c-0.1-0.2-0.1-0.4-0.1-0.6l0.2,0.1l1.3,0.3
		c1.4,0.3,1.3-0.8,2.1-1c0.5-0.1,1.2,0.2,2.3-0.1C122.2,16.7,124.6,16.2,124.2,15.3z M107,14.3c-0.6,0.6-1.9,2.6-3.8,3
		c-1.3,0.2-0.9-0.6-2.1-1c-0.7-0.2-1.7,0.6-3.1-0.5c-0.3-0.2-0.4-0.3-0.5-0.6c-0.1-0.5,0.5-1,1.5-1.3c4.6-1.7,6.4-1.3,7.2-1.5
		c0.1,0,0.3-0.1,0.4,0c-0.8,0.7-1.6,1.4-2.6,1.8c-0.2,0.1-0.1,0.3,0.1,0.3c1.2-0.2,2.3-0.5,3.1-1.4C107.5,13.6,107.4,13.9,107,14.3z
		 M109.9,7.7c0.8,0,1.4,0.5,1.4,1c0,0.5-0.6-0.1-1.4-0.1c-0.8,0-1.3,0.6-1.3,0.1C108.5,8.2,109.1,7.7,109.9,7.7z M108.1,11.7
		c0-1,0.8-1.5,1.8-1.5c1,0,1.8,0.5,1.8,1.5c0,1-0.8,2.3-1.8,2.3C108.9,14.1,108.1,12.7,108.1,11.7z M111.7,21
		c-0.5,1.4-1.5,2.7-2.3,1.8c-0.1-0.1-0.1-0.6,0.1-0.7c0.4-0.3,1.6-0.4,1.2-0.7c-0.8-0.2-0.9-0.1-1.2-0.3c-0.1-0.1-0.3-0.2-0.7-0.4
		c-0.2-0.8,0.9-0.9,2.2-0.9c0.3-0.1,0.5-0.4,0-0.5c-1.3,0-2.4-0.1-2.4-0.9c-0.1-0.5,2.5-0.3,2.4-0.9c-0.2-0.4-1.5,0.2-2.1-0.5
		c-0.3-0.3,0.1-0.9,0.6-1c1.2-0.4,2.3,1,2.4,2.3C112.1,19.1,112,20.3,111.7,21z M122.1,15.3c-0.1,0.3-0.2,0.4-0.5,0.6
		c-1.4,1.1-2.4,0.3-3.1,0.5c-1.2,0.4-0.8,1.2-2.1,1c-1.9-0.3-3.2-2.4-3.8-3c-0.4-0.4-0.5-0.7-0.3-1.1c0.8,0.9,1.9,1.2,3.1,1.4
		c0.2,0,0.3-0.2,0.1-0.3c-1-0.4-1.8-1.1-2.6-1.8c0.1-0.1,0.3-0.1,0.4,0c0.8,0.2,2.6-0.2,7.2,1.5C121.6,14.3,122.2,14.7,122.1,15.3z"
		/>
</g>
</svg>
