<?xml version="1.0" encoding="utf-8"?>
<!-- Generator: Adobe Illustrator 19.2.1, SVG Export Plug-In . SVG Version: 6.00 Build 0)  -->
<svg version="1.1" xmlns="http://www.w3.org/2000/svg" xmlns:xlink="http://www.w3.org/1999/xlink" x="0px" y="0px"
	 viewBox="0 0 50 50" enable-background="new 0 0 50 50" xml:space="preserve">
<g id="Layer_3">
	<circle fill="#999999" cx="25.3" cy="25" r="23.4"/>
	<path fill="none" stroke="#FFFFFF" stroke-width="2" stroke-linecap="round" stroke-linejoin="round" stroke-miterlimit="10" d="
		M-11.4,57.6"/>
	<path fill="none" stroke="#FFFFFF" stroke-miterlimit="10" d="M26.2,15h-1.8c-1.2,0-2.3-1-2.3-2.3v0c0-1.2,1-2.3,2.3-2.3h1.8
		c1.2,0,2.3,1,2.3,2.3v0C28.4,14,27.4,15,26.2,15z"/>
	<path fill="#FFFFFF" d="M34.9,36.2H15.5c-1.1,0-2-0.9-2-2v-3.5c0-1.1,0.9-2,2-2h19.4c1.1,0,2,0.9,2,2v3.5
		C36.9,35.3,36,36.2,34.9,36.2z"/>
	<path fill="#FFFFFF" stroke="#999999" stroke-miterlimit="10" d="M32.1,38H18.4c-1.6,0-3-1.4-3-3V19.9c0-3.9,3.1-7,7-7h5.7
		c3.8,0,7,3.1,7,7V35C35.1,36.6,33.7,38,32.1,38z"/>
	<path fill="#FFFFFF" stroke="#999999" stroke-miterlimit="10" d="M30.9,35.7H19.5c-1.1,0-2-0.9-2-2V31c0-1.1,0.9-2,2-2h11.4
		c1.1,0,2,0.9,2,2v2.6C32.9,34.8,32,35.7,30.9,35.7z"/>
	<path fill="none" d="M36.1,36.7L36.1,36.7C36,36.7,36,36.7,36.1,36.7C36,36.7,36.1,36.7,36.1,36.7z"/>
	<path fill="#8AC547" d="M36,36.7L36,36.7C36.1,36.7,36,36.7,36,36.7C36,36.7,36,36.7,36,36.7z"/>
</g>
<g id="Layer_2">
</g>
<g id="Layer_1">
</g>
</svg>
