<svg width="6em" height="2em" version="1.1" xmlns="http://www.w3.org/2000/svg" xmlns:xlink="http://www.w3.org/1999/xlink" x="0px" y="0px" viewBox="0 0 130 40" enable-background="new 0 0 130 40" xml:space="preserve" class="ng-scope">
  <g id="Layer_2">
  </g>
  <g id="Layer_1">
    <g>
      <g>
        <path fill="#8DC63F" d="M86.7,34.1C86.7,34.1,86.7,34.1,86.7,34.1C86.7,34.1,86.7,34.1,86.7,34.1z"></path>
      </g>
      <path fill="#8DC63F" d="M79.1,31.6"></path>
      <g>
        <path fill="none" d="M77.8,27.1c-0.9,0-1.7,0.7-1.9,1.5h3.8C79.5,27.8,78.8,27.1,77.8,27.1z"></path>
        <path fill="#8DC63F" d="M82.4,29.9L82.4,29.9c0,0.7-0.6,1.3-1.3,1.3h-0.2c0.1,0,0.1,0,0.2,0C81.8,31.3,82.4,30.7,82.4,29.9
          C82.4,30,82.4,29.9,82.4,29.9z"></path>
        <path fill="#8DC63F" d="M82.4,29.9c0-0.7-0.6-1.3-1.3-1.3h-1.4c0,0.1,0.1,0.3,0.1,0.4V30h0c0,0.7,0.5,1.2,1.1,1.3h0.2
          C81.8,31.3,82.4,30.7,82.4,29.9z"></path>
        <path fill="#8DC63F" d="M75.9,30.8v-1.8h0c0-0.2,0-0.3,0.1-0.4h-1.4c-0.7,0-1.3,0.6-1.3,1.3c0,0.7,0.6,1.3,1.3,1.3h1.4
          C75.9,31.1,75.8,31,75.9,30.8L75.9,30.8z"></path>
      </g>
      <path opacity="0.4" fill="#8DC63F" d="M93.8,33.9L93.8,33.9l0-4h0v-0.9h0c0-1.2-0.5-2.4-1.3-3.2c-0.8,0.8-1.3,2-1.3,3.2h0v1.8v3.1
        c0,0,0,0,0,0c0,0.7,0.6,1.3,1.3,1.3C93.3,35.2,93.8,34.6,93.8,33.9z"></path>
      <g>
        <path fill="#999999" d="M124.6,20.9c0,0-6-2.5-6-2.5c-0.7-0.3-1.4,0-1.7,0.7c-0.3,0.7,0,1.4,0.7,1.7c0,0,6,2.5,6,2.5
          c0.7,0.3,1.4,0,1.7-0.7C125.6,21.9,125.2,21.1,124.6,20.9z"></path>
        <path fill="#999999" d="M108.8,14.3c0,0-10.9-4.5-10.9-4.5c-0.7-0.3-1.4,0-1.7,0.7c-0.3,0.7,0,1.4,0.7,1.7c0,0,10.9,4.5,10.9,4.5
          c0.7,0.3,1.4,0,1.7-0.7C109.8,15.4,109.5,14.6,108.8,14.3z"></path>
        <path fill="#999999" d="M127.2,10.3c0,0-9.6,4-9.7,4c-0.7,0.3-1,1-0.7,1.7c0.3,0.7,1,1,1.7,0.7c0,0,9.7-4,9.7-4
          c0.7-0.3,1-1,0.7-1.7S127.9,10.1,127.2,10.3z"></path>
        <path fill="#999999" d="M118.5,1.3c0,0-4.5,10.9-4.5,10.9c-0.3,0.7,0,1.4,0.7,1.7c0.7,0.3,1.4,0,1.7-0.7c0,0,4.5-10.9,4.5-10.9
          c0.3-0.7,0-1.4-0.7-1.7C119.5,0.4,118.8,0.7,118.5,1.3z"></path>
        <path fill="#999999" d="M110.9,26.5c0.3-0.7,0-1.4-0.7-1.7c-0.7-0.3-1.4,0-1.7,0.7c0,0-1,2.3-2,4.8c-0.9-2.2-2-4.8-2-4.8
          c-0.3-0.7-1-1-1.7-0.7c-0.7,0.3-1,1-0.7,1.7c0,0,2.3,5.5,3,7.3c-0.6,1.5-1.1,2.6-1.1,2.6c-0.3,0.7,0,1.4,0.7,1.7
          c0.7,0.3,1.4,0,1.7-0.7c0,0,0.6-1.3,1.3-3.1c0,0,0-0.1,0-0.1C109,31,110.9,26.5,110.9,26.5z"></path>
        <path fill="#999999" d="M107,6c0,0,3,7.2,3,7.3c0.3,0.7,1,1,1.7,0.7c0.7-0.3,1-1,0.7-1.7c0,0-3-7.2-3-7.3c-0.3-0.7-1-1-1.7-0.7
          C107,4.5,106.7,5.3,107,6z"></path>
        <path fill="#999999" d="M114,22.9c0,0,4,9.7,4,9.7c0.3,0.7,1,1,1.7,0.7c0.7-0.3,1-1,0.7-1.7c0,0-4-9.7-4-9.7
          c-0.3-0.7-1-1-1.7-0.7C114,21.4,113.7,22.2,114,22.9z"></path>
      </g>
      <path fill="#999999" d="M107.8,18.4c0,0-3.6,1.5-3.6,1.5c-0.7,0.3-1,1-0.7,1.7c0.3,0.7,1,1,1.7,0.7c0,0,3.6-1.5,3.6-1.5
        c0.7-0.3,1-1,0.7-1.7C109.3,18.4,108.5,18.1,107.8,18.4z"></path>
      <g>
        <path opacity="0.5" fill="#FFFFFF" d="M116.8,19.1c-0.3,0.7,0,1.4,0.7,1.7c0,0,0.4,0.2,1.1,0.5c0.2-0.4,0.4-0.7,0.6-1.1
          c0.2-0.4,0.3-0.9,0.4-1.3c-0.6-0.3-1.1-0.4-1.1-0.5C117.9,18.1,117.1,18.4,116.8,19.1z"></path>
        <path opacity="0.5" fill="#FFFFFF" d="M109.6,16.1c0.3-0.7,0-1.4-0.7-1.7c0,0-0.4-0.2-1.1-0.4c-0.2,0.4-0.4,0.7-0.6,1.1
          c-0.2,0.4-0.3,0.9-0.4,1.3c0.7,0.3,1.1,0.4,1.1,0.4C108.5,17,109.3,16.7,109.6,16.1z"></path>
        <path opacity="0.5" fill="#FFFFFF" d="M117.5,14.3c-0.7,0.3-1,1-0.7,1.7c0.3,0.7,1,1,1.7,0.7c0,0,0.4-0.2,1.1-0.4
          c-0.2-0.9-0.5-1.7-1-2.4C117.9,14.2,117.5,14.3,117.5,14.3z"></path>
        <path opacity="0.5" fill="#FFFFFF" d="M114.7,13.9c0.7,0.3,1.4,0,1.7-0.7c0,0,0.2-0.4,0.4-1.1c-0.4-0.2-0.7-0.4-1.1-0.6
          c-0.4-0.2-0.9-0.3-1.3-0.4c-0.3,0.7-0.4,1.1-0.4,1.1C113.7,12.9,114,13.7,114.7,13.9z"></path>
        <path opacity="0.5" fill="#FFFFFF" d="M111.7,13.9c0.7-0.3,1-1,0.7-1.7c0,0-0.2-0.4-0.4-1.1c-0.9,0.2-1.7,0.5-2.4,1
          c0.3,0.6,0.4,1.1,0.4,1.1C110.2,13.9,111,14.2,111.7,13.9z"></path>
        <path opacity="0.5" fill="#FFFFFF" d="M114.7,21.1c-0.7,0.3-1,1-0.7,1.7c0,0,0.2,0.4,0.5,1.1c0.9-0.2,1.7-0.5,2.4-1
          c-0.3-0.7-0.5-1.1-0.5-1.1C116.1,21.2,115.3,20.9,114.7,21.1z"></path>
        <path opacity="0.5" fill="#FFFFFF" d="M109.5,19.1c-0.3-0.7-1-1-1.7-0.7c0,0-0.5,0.2-1.1,0.4c0.2,0.9,0.5,1.7,1,2.4
          c0.6-0.2,1.1-0.4,1.1-0.4C109.5,20.5,109.8,19.7,109.5,19.1z"></path>
      </g>
      <circle fill="#8DC63F" cx="74.5" cy="30" r="1.3"></circle>
      <g>
        <path fill="none" d="M77.8,27.1c-0.9,0-1.7,0.7-1.9,1.5h3.8C79.5,27.8,78.8,27.1,77.8,27.1z"></path>
        <path fill="none" d="M74.4,28.6c0,0,0.1,0,0.1,0h0C74.5,28.6,74.4,28.6,74.4,28.6z"></path>
        <path fill="none" d="M75.8,29.1c0-0.2,0-0.3,0.1-0.4h-1.4c0.7,0,1.3,0.6,1.3,1.3L75.8,29.1L75.8,29.1z"></path>
        <path fill="none" d="M75.9,30.8V30c0,0.7-0.5,1.2-1.1,1.3h1.2C75.9,31.1,75.8,31,75.9,30.8L75.9,30.8z"></path>
        <path fill="#999999" d="M82.4,29.1c0-2.5-2.1-4.6-4.6-4.6c-2.5,0-4.6,2.1-4.6,4.6h0v1.8h0c0,2.5,2.1,4.6,4.6,4.6
          c1,0,1.9-0.3,2.7-0.9l0,0c0,0,0.1,0,0.1-0.1c0,0,0,0,0,0c0.3-0.2,0.5-0.6,0.5-1c0-0.7-0.6-1.3-1.3-1.3c-0.3,0-0.6,0.1-0.8,0.3
          l0,0c-0.3,0.2-0.7,0.4-1.2,0.4c-0.9,0-1.7-0.7-1.9-1.6h5h0.2c0.7,0,1.3-0.6,1.3-1.3L82.4,29.1L82.4,29.1z M75.9,28.6
          c0.2-0.9,1-1.5,1.9-1.5c0.9,0,1.7,0.7,1.9,1.5H75.9z"></path>
      </g>
      <path fill="#999999" d="M100.4,29.9v-0.9h0c0-2.5-2.1-4.6-4.6-4.6c-1.3,0-2.5,0.5-3.3,1.4c-0.8-0.9-2-1.4-3.3-1.4
        c-0.9,0-1.6,0.2-2.3,0.6c-0.2-0.3-0.6-0.4-1-0.4c-0.7,0-1.3,0.6-1.3,1.3h0v3.1v0c0,0,0,0,0,0h0V30v0.8h0v3.1c0,0,0,0,0,0
        c0,0.7,0.6,1.3,1.3,1.3c0.7,0,1.3-0.6,1.3-1.3V30v0c0,0,0,0,0,0c0,0,0,0,0,0v0v-0.8v0v0c0-1.1,0.9-2,2-2c1.1,0,2,0.9,2,2v1.8h0
        v3.1c0,0,0,0,0,0c0,0.7,0.6,1.3,1.3,1.3l0,0l0,0c0.7,0,1.3-0.6,1.3-1.3v-4v-0.8h0c0-1.1,0.9-2,2-2c1.1,0,2,0.9,2,2v1.8h0v3.1
        c0,0,0,0,0,0c0,0.7,0.6,1.3,1.3,1.3c0.7,0,1.3-0.6,1.3-1.3h0L100.4,29.9L100.4,29.9z"></path>
      <g>
        <path fill="#999999" d="M39.4,21.1c-0.7,0-1.3,0.6-1.3,1.3h0v0l0,0l0,0v2.5c-0.6-0.3-1.3-0.4-2-0.4c-2.5,0-4.6,2.1-4.6,4.6h0v1.8
          h0c0,2.5,2.1,4.6,4.6,4.6c0.9,0,1.6-0.2,2.3-0.6c0.2,0.3,0.6,0.4,1,0.4c0.7,0,1.3-0.6,1.3-1.3h0V22.4h0
          C40.7,21.7,40.1,21.1,39.4,21.1z M38.1,30.8c0,1.1-0.9,2-2,2c-1.1,0-2-0.9-2-2h0v-1.8h0c0-1.1,0.9-2,2-2c1.1,0,2,0.9,2,2V30.8z"></path>
        <path fill="#999999" d="M52.1,29.9v-0.9h0c0-2.5-2.1-4.6-4.6-4.6c-2.5,0-4.6,2.1-4.6,4.6h0v1.8h0c0,2.5,2.1,4.6,4.6,4.6
          c0.8,0,1.6-0.2,2.2-0.6c0.2,0.3,0.6,0.6,1.1,0.6c0.7,0,1.3-0.6,1.3-1.3L52.1,29.9L52.1,29.9z M49.5,30.8c0,1.1-0.9,2-2,2
          c-1.1,0-2-0.9-2-2h0v-1.8h0c0-1.1,0.9-2,2-2c1.1,0,2,0.9,2,2V30.8z"></path>
        <path fill="#999999" d="M59,24.5c-0.9,0-1.6,0.2-2.3,0.6c-0.2-0.3-0.6-0.4-1-0.4c-0.7,0-1.3,0.6-1.3,1.3h0v11.7h0
          c0,0.7,0.6,1.3,1.3,1.3c0.7,0,1.3-0.6,1.3-1.3h0v0l0,0l0,0V35v0c0.6,0.3,1.3,0.4,2,0.4c2.5,0,4.6-2.1,4.6-4.6v-1.8
          C63.6,26.5,61.5,24.5,59,24.5z M59,32.8c-1.1,0-2-0.9-2-2v-1.8c0-1.1,0.9-2,2-2c1.1,0,2,0.9,2,2h0v1.8h0
          C60.9,31.9,60,32.8,59,32.8z"></path>
        <path fill="#999999" d="M70.4,32.8c-1.1,0-2-0.9-2-2v-3.5h2c0.7,0,1.3-0.6,1.3-1.3c0-0.7-0.6-1.3-1.3-1.3h-2v-2.3h0v0
          c0-0.7-0.6-1.3-1.3-1.3c-0.7,0-1.3,0.6-1.3,1.3v0v8.4h0c0,2.5,2.1,4.6,4.6,4.6h0h0c0.7,0,1.3-0.6,1.3-1.3
          C71.7,33.4,71.1,32.8,70.4,32.8z"></path>
        <path fill="#999999" d="M25.6,22.6c-0.1-0.4-0.4-0.7-0.7-0.8c-0.1-0.1-0.3-0.1-0.4-0.1c0,0,0,0,0,0c0,0,0,0,0,0
          c-0.1,0-0.3,0-0.4,0.1c-0.4,0.1-0.6,0.5-0.7,0.8l-4.4,11.1c-0.3,0.6,0.1,1.4,0.7,1.6c0.2,0.1,0.4,0.1,0.6,0.1
          c0.4,0,0.9-0.3,1-0.8l0.8-2H27l0.8,2c0.2,0.4,0.6,0.7,1,0.8c0.2,0,0.4,0,0.6-0.1c0.6-0.3,0.9-1,0.7-1.6L25.6,22.6z M23,29.9
          l1.5-3.7l1.5,3.7H23z"></path>
      </g>
    </g>
    <g>
      <path fill="#999999" d="M0.9,3.1h0.7l0.2,0.8h0.1c0.2-0.3,0.5-0.5,0.8-0.7C3,3,3.3,2.9,3.8,2.9c0.9,0,1.5,0.3,1.9,0.8
        S6.3,5,6.3,6.2c0,0.5-0.1,1-0.2,1.5C6,8.1,5.8,8.4,5.5,8.7S4.9,9.3,4.6,9.4C4.2,9.6,3.8,9.7,3.3,9.7c-0.3,0-0.6,0-0.8-0.1
        C2.4,9.6,2.2,9.5,2,9.4v2.7h-1V3.1z M3.6,3.8c-0.4,0-0.8,0.1-1,0.3C2.3,4.4,2.1,4.7,2,5.2v3.2c0.2,0.1,0.3,0.2,0.5,0.3
        C2.7,8.7,3,8.8,3.3,8.8c0.6,0,1.1-0.2,1.4-0.7c0.3-0.4,0.5-1.1,0.5-2c0-0.4,0-0.7-0.1-1C5.1,4.9,5,4.7,4.9,4.5S4.6,4.1,4.3,4
        C4.1,3.9,3.9,3.8,3.6,3.8z"></path>
      <path fill="#999999" d="M7.6,6.3c0-1.1,0.2-1.9,0.7-2.5c0.5-0.6,1.2-0.9,2.1-0.9c0.5,0,0.9,0.1,1.3,0.2c0.4,0.2,0.7,0.4,0.9,0.7
        c0.2,0.3,0.4,0.7,0.5,1.1c0.1,0.4,0.2,0.9,0.2,1.4c0,1.1-0.2,1.9-0.7,2.5c-0.5,0.6-1.2,0.9-2.1,0.9c-0.5,0-0.9-0.1-1.3-0.2
        C8.8,9.3,8.5,9.1,8.3,8.8S7.9,8.1,7.7,7.7C7.6,7.3,7.6,6.8,7.6,6.3z M8.7,6.3c0,0.3,0,0.6,0.1,0.9C8.8,7.5,8.9,7.8,9.1,8
        c0.1,0.2,0.3,0.4,0.5,0.5c0.2,0.1,0.5,0.2,0.8,0.2c1.2,0,1.8-0.8,1.8-2.5c0-0.3,0-0.7-0.1-1C12,5,11.9,4.8,11.8,4.5
        c-0.1-0.2-0.3-0.4-0.5-0.5c-0.2-0.1-0.5-0.2-0.8-0.2C9.2,3.8,8.7,4.6,8.7,6.3z"></path>
      <path fill="#999999" d="M18.9,3.1l1.5,3.8l0.3,1.2h0L21,6.8l1.2-3.8h1L21,9.7h-0.5l-1.7-4.3l-0.2-1.1h0l-0.3,1.1l-1.6,4.3h-0.5
        l-2.3-6.6H15l1.3,3.8l0.2,1.3h0l0.3-1.3l1.4-3.7H18.9z"></path>
      <path fill="#999999" d="M28.8,9c-0.3,0.2-0.6,0.4-1,0.5c-0.4,0.1-0.8,0.2-1.2,0.2c-0.5,0-0.9-0.1-1.3-0.2
        c-0.4-0.2-0.7-0.4-0.9-0.7S24,8.1,23.9,7.7c-0.1-0.4-0.2-0.9-0.2-1.4c0-1.1,0.2-1.9,0.7-2.5s1.2-0.9,2.1-0.9c0.3,0,0.6,0,0.9,0.1
        c0.3,0.1,0.6,0.2,0.8,0.4s0.4,0.4,0.6,0.8C29,4.5,29,4.9,29,5.5c0,0.3,0,0.6-0.1,0.9h-4.2c0,0.4,0,0.7,0.1,1
        c0.1,0.3,0.2,0.5,0.4,0.7c0.2,0.2,0.4,0.4,0.6,0.5c0.3,0.1,0.6,0.2,1,0.2c0.3,0,0.6-0.1,0.9-0.2c0.3-0.1,0.5-0.2,0.7-0.4L28.8,9z
         M26.6,3.8c-0.5,0-0.9,0.1-1.2,0.4c-0.3,0.3-0.5,0.7-0.5,1.4H28c0-0.7-0.1-1.1-0.4-1.4C27.4,3.9,27.1,3.8,26.6,3.8z"></path>
      <path fill="#999999" d="M33.7,4.1C33.5,4,33.2,3.9,33,3.9c-0.4,0-0.7,0.1-0.9,0.3c-0.2,0.2-0.3,0.5-0.4,0.8v4.5h-1V3.1h0.7
        l0.2,0.8h0.1c0.2-0.3,0.4-0.5,0.6-0.7c0.2-0.2,0.5-0.2,0.9-0.2c0.2,0,0.5,0,0.8,0.1L33.7,4.1z"></path>
      <path fill="#999999" d="M39.8,9c-0.3,0.2-0.6,0.4-1,0.5c-0.4,0.1-0.8,0.2-1.2,0.2c-0.5,0-0.9-0.1-1.3-0.2
        c-0.4-0.2-0.7-0.4-0.9-0.7S35,8.1,34.9,7.7c-0.1-0.4-0.2-0.9-0.2-1.4c0-1.1,0.2-1.9,0.7-2.5s1.2-0.9,2.1-0.9c0.3,0,0.6,0,0.9,0.1
        c0.3,0.1,0.6,0.2,0.8,0.4s0.4,0.4,0.6,0.8C39.9,4.5,40,4.9,40,5.5c0,0.3,0,0.6-0.1,0.9h-4.2c0,0.4,0,0.7,0.1,1
        c0.1,0.3,0.2,0.5,0.4,0.7c0.2,0.2,0.4,0.4,0.6,0.5c0.3,0.1,0.6,0.2,1,0.2c0.3,0,0.6-0.1,0.9-0.2c0.3-0.1,0.5-0.2,0.7-0.4L39.8,9z
         M37.6,3.8c-0.5,0-0.9,0.1-1.2,0.4c-0.3,0.3-0.5,0.7-0.5,1.4H39c0-0.7-0.1-1.1-0.4-1.4C38.4,3.9,38,3.8,37.6,3.8z"></path>
      <path fill="#999999" d="M46.6,7.3c0,0.4,0,0.8,0,1.2c0,0.4,0,0.7,0.1,1.1H46l-0.3-0.9h-0.1c-0.2,0.3-0.4,0.6-0.8,0.8
        s-0.7,0.3-1.2,0.3c-0.9,0-1.5-0.3-1.9-0.8c-0.4-0.5-0.6-1.4-0.6-2.5c0-1.1,0.3-1.9,0.8-2.5c0.5-0.6,1.2-0.9,2.2-0.9
        c0.3,0,0.6,0,0.8,0.1c0.2,0,0.4,0.1,0.6,0.2V0.5h1V7.3z M44,8.8c0.4,0,0.8-0.1,1-0.3c0.3-0.2,0.4-0.6,0.5-1V4.2
        C45.4,4.1,45.2,4,45,3.9c-0.2-0.1-0.5-0.1-0.8-0.1c-0.6,0-1.1,0.2-1.4,0.6c-0.3,0.4-0.5,1-0.5,1.9c0,0.4,0,0.7,0.1,1
        s0.1,0.6,0.3,0.8c0.1,0.2,0.3,0.4,0.5,0.5C43.4,8.7,43.7,8.8,44,8.8z"></path>
      <path fill="#999999" d="M52.1,0.5h1v3.2h0.1c0.2-0.2,0.5-0.4,0.8-0.6c0.3-0.1,0.6-0.2,1-0.2c0.8,0,1.5,0.3,1.9,0.8
        c0.4,0.5,0.6,1.4,0.6,2.5c0,1.1-0.3,2-0.8,2.6s-1.3,0.9-2.3,0.9c-0.5,0-0.9-0.1-1.3-0.2c-0.4-0.1-0.7-0.2-0.9-0.3V0.5z M54.7,3.8
        c-0.4,0-0.8,0.1-1,0.4c-0.3,0.2-0.5,0.6-0.6,1v3.3c0.2,0.1,0.4,0.2,0.6,0.2c0.2,0,0.5,0.1,0.7,0.1c0.6,0,1.1-0.2,1.4-0.6
        c0.3-0.4,0.5-1.1,0.5-1.9c0-0.3,0-0.7-0.1-0.9c-0.1-0.3-0.2-0.5-0.3-0.8S55.7,4.1,55.5,4C55.3,3.9,55,3.8,54.7,3.8z"></path>
      <path fill="#999999" d="M60.8,7.3l0.4,1.2h0.1l0.3-1.3l1.3-4.2h1l-1.9,5.8c-0.1,0.4-0.3,0.8-0.4,1.2c-0.1,0.4-0.3,0.8-0.5,1.1
        c-0.2,0.3-0.4,0.6-0.6,0.7c-0.2,0.2-0.5,0.3-0.8,0.3c-0.3,0-0.6,0-0.8-0.1l0.2-0.9c0.1,0,0.2,0.1,0.3,0.1c0.2,0,0.5-0.1,0.7-0.4
        c0.2-0.3,0.4-0.7,0.6-1.3L58,3.1h1.2L60.8,7.3z"></path>
    </g>
  </g>
</svg>