<svg id="Layer_1" data-name="Layer 1" xmlns="http://www.w3.org/2000/svg" viewBox="0 0 50 50"><title>engages-white-bg</title><g id="Layer_2" data-name="Layer 2"><circle cx="25.3" cy="25" r="23.4" style="fill:#fff"/></g><g id="Layer_1-2" data-name="Layer 1"><path d="M14.7,34.1h2.6a1.54,1.54,0,0,0,1.5-1.5V22.3a1.54,1.54,0,0,0-1.5-1.5H14.7a1.54,1.54,0,0,0-1.5,1.5V32.6A1.47,1.47,0,0,0,14.7,34.1Z" style="fill:#40a6de"/><path d="M28.3,34.2H21.7a1.54,1.54,0,0,1-1.5-1.5V22.3a1.54,1.54,0,0,1,1.5-1.5h6.6a1.54,1.54,0,0,1,1.5,1.5V32.6A1.56,1.56,0,0,1,28.3,34.2Z" style="fill:#999"/><path d="M20.6,21.3l2.2-3.4a5.91,5.91,0,0,0,1.1-4.1c0-1.8-.3-2.9,2.2-2.5s2.6,4,2.3,4.9-1.1,5.3-1.1,5.3Z" style="fill:#999"/><path d="M35.6,23.6H27.3a1.54,1.54,0,0,1-1.5-1.5h0a1.54,1.54,0,0,1,1.5-1.5h8.3a1.54,1.54,0,0,1,1.5,1.5h0A1.54,1.54,0,0,1,35.6,23.6Z" style="fill:#999"/><path d="M35.1,27.1H26.8a1.54,1.54,0,0,1-1.5-1.5h0a1.54,1.54,0,0,1,1.5-1.5h8.3a1.54,1.54,0,0,1,1.5,1.5h0A1.54,1.54,0,0,1,35.1,27.1Z" style="fill:#999"/><path d="M34.2,30.6H25.9a1.54,1.54,0,0,1-1.5-1.5h0a1.54,1.54,0,0,1,1.5-1.5h8.3a1.54,1.54,0,0,1,1.5,1.5h0A1.47,1.47,0,0,1,34.2,30.6Z" style="fill:#999"/><path d="M33.5,34.1H25.2a1.54,1.54,0,0,1-1.5-1.5h0a1.54,1.54,0,0,1,1.5-1.5h8.3A1.54,1.54,0,0,1,35,32.6h0A1.47,1.47,0,0,1,33.5,34.1Z" style="fill:#999"/><path d="M30.6,32.3l-2.4-.5A1.65,1.65,0,0,1,27,30l1.6-7.9a1.65,1.65,0,0,1,1.8-1.2l2.4,0.5A1.65,1.65,0,0,1,34,23.2l-1.6,7.9A1.65,1.65,0,0,1,30.6,32.3Z" style="fill:#999"/></g></svg>