<?xml version="1.0" encoding="utf-8"?>
<!-- Generator: Adobe Illustrator 19.2.1, SVG Export Plug-In . SVG Version: 6.00 Build 0)  -->
<svg version="1.1" xmlns="http://www.w3.org/2000/svg" xmlns:xlink="http://www.w3.org/1999/xlink" x="0px" y="0px"
	 viewBox="0 0 50 50" enable-background="new 0 0 50 50" xml:space="preserve">
<g id="Layer_3">
	<circle fill="#999999" cx="25.3" cy="25" r="23.4"/>
	<path fill="none" d="M24.3,21.6L24.3,21.6C24.3,21.5,24.3,21.5,24.3,21.6C24.3,21.6,24.3,21.6,24.3,21.6z"/>
	<path fill="#8AC547" d="M24.3,21.5L24.3,21.5C24.3,21.6,24.3,21.6,24.3,21.5C24.3,21.5,24.3,21.5,24.3,21.5z"/>
	<g>
		<g>
			<path fill="none" d="M19.2,36c1.6,0,3.3,0,4.9,0c0-1.7,0-2.2,0-3.9c0.8,0,1.6,0,2.5,0c0,1.7,0,2.2,0,3.9c1.6,0,3.3,0,4.9,0
				c0-6.8,0-13.5,0-20.3c-4.1,0-8.2,0-12.3,0C19.2,22.5,19.2,29.2,19.2,36z"/>
			<path fill="#F3F3F3" d="M16.7,18.3v18.3c0,1.1,0.9,2,2,2h13.2c1.1,0,2-0.9,2-2V18.3H16.7z M31.5,36c-1.6,0-3.3,0-4.9,0
				c0-1.7,0-2.2,0-3.9c-0.8,0-1.6,0-2.5,0c0,1.7,0,2.2,0,3.9c-1.7,0-3.3,0-4.9,0c0-6.7,0-13.5,0-20.3c4.1,0,8.2,0,12.3,0
				C31.5,22.4,31.5,29.2,31.5,36z"/>
		</g>
		<path fill="#F3F3F3" d="M22.8,23.4c-0.8,0-1.6,0-2.4,0c0-0.8,0-1.6,0-2.4c0.8,0,1.6,0,2.4,0C22.8,21.8,22.8,22.6,22.8,23.4z"/>
		<path fill="#F3F3F3" d="M24.1,23.4c0-0.8,0-1.6,0-2.4c0.8,0,1.6,0,2.4,0c0,0.8,0,1.6,0,2.4C25.7,23.4,25,23.4,24.1,23.4z"/>
		<path fill="#F3F3F3" d="M30.3,23.4c-0.8,0-1.6,0-2.4,0c0-0.8,0-1.6,0-2.4c0.8,0,1.6,0,2.4,0C30.3,21.8,30.3,22.6,30.3,23.4z"/>
		<path fill="#F3F3F3" d="M22.9,27.1c-0.8,0-1.6,0-2.4,0c0-0.8,0-1.6,0-2.4c0.8,0,1.6,0,2.4,0C22.9,25.5,22.9,26.3,22.9,27.1z"/>
		<path fill="#F3F3F3" d="M24.1,27.1c0-0.8,0-1.6,0-2.4c0.8,0,1.6,0,2.4,0c0,0.8,0,1.6,0,2.4C25.8,27.1,25,27.1,24.1,27.1z"/>
		<path fill="#F3F3F3" d="M27.8,24.7c0.8,0,1.6,0,2.4,0c0,0.8,0,1.6,0,2.4c-0.8,0-1.6,0-2.4,0C27.8,26.3,27.8,25.5,27.8,24.7z"/>
		<path fill="#F3F3F3" d="M20.4,30.8c0-0.8,0-1.6,0-2.4c0.8,0,1.6,0,2.4,0c0,0.8,0,1.6,0,2.4C22.1,30.8,21.2,30.8,20.4,30.8z"/>
		<path fill="#F3F3F3" d="M26.6,28.4c0,0.8,0,1.6,0,2.4c-0.8,0-1.6,0-2.4,0c0-0.8,0-1.6,0-2.4C24.9,28.4,25.7,28.4,26.6,28.4z"/>
		<path fill="#F3F3F3" d="M30.3,30.8c-0.8,0-1.6,0-2.4,0c0-0.8,0-1.6,0-2.4c0.8,0,1.6,0,2.4,0C30.3,29.2,30.3,30,30.3,30.8z"/>
		<path fill="#F3F3F3" d="M20.4,32.1c0.8,0,1.6,0,2.4,0c0,0.8,0,1.6,0,2.4c-0.8,0-1.6,0-2.4,0C20.4,33.7,20.4,32.9,20.4,32.1z"/>
		<path fill="#F3F3F3" d="M30.3,34.6c-0.8,0-1.6,0-2.4,0c0-0.8,0-1.6,0-2.4c0.8,0,1.6,0,2.4,0C30.3,32.9,30.3,33.7,30.3,34.6z"/>
	</g>
	<path fill="#F3F3F3" d="M14.7,19.9l9.2-9.2c0.8-0.8,2-0.8,2.8,0l9.2,9.2"/>
	<path fill="none" stroke="#FFFFFF" stroke-width="2" stroke-linecap="round" stroke-linejoin="round" stroke-miterlimit="10" d="
		M-11.4,57.6"/>
	<path fill="none" d="M-23.4,39.4L-23.4,39.4C-23.4,39.3-23.4,39.3-23.4,39.4C-23.4,39.3-23.4,39.4-23.4,39.4z"/>
	<path fill="#8AC547" d="M-23.4,39.3L-23.4,39.3C-23.4,39.4-23.4,39.3-23.4,39.3C-23.4,39.3-23.4,39.3-23.4,39.3z"/>
</g>
<g id="Layer_2">
</g>
<g id="Layer_1">
</g>
</svg>
