<?xml version="1.0" standalone="no"?>
<!DOCTYPE svg PUBLIC "-//W3C//DTD SVG 20010904//EN"
 "http://www.w3.org/TR/2001/REC-SVG-20010904/DTD/svg10.dtd">
<svg version="1.0" xmlns="http://www.w3.org/2000/svg"
 width="700.000000pt" height="700.000000pt" viewBox="0 0 700.000000 700.000000"
 preserveAspectRatio="xMidYMid meet">
<metadata>
Created by potrace 1.11, written by Peter Selinger 2001-2013
</metadata>
<g transform="translate(0.000000,700.000000) scale(0.100000,-0.100000)"
fill="#000000" stroke="none">
<path d="M3265 6803 c-943 -76 -1767 -508 -2346 -1228 -389 -483 -618 -1023
-705 -1660 -22 -163 -26 -619 -6 -765 47 -341 110 -594 212 -850 282 -709 798
-1297 1465 -1671 392 -219 778 -342 1265 -401 157 -19 593 -16 755 6 969 128
1808 651 2340 1456 533 808 681 1770 415 2710 -354 1248 -1420 2189 -2690
2374 -216 32 -521 44 -705 29z m1885 -1973 l0 -260 -389 0 -389 0 -7 -147 c-6
-142 -63 -791 -87 -998 -19 -165 -16 -573 5 -682 31 -166 86 -258 188 -313 60
-33 69 -35 159 -35 85 0 102 3 160 31 36 17 82 45 101 62 53 46 106 160 121
260 l12 82 36 0 c19 0 46 3 59 7 l24 6 -6 -89 c-18 -252 -140 -538 -296 -695
-140 -140 -282 -197 -465 -186 -196 12 -311 59 -426 176 -108 110 -167 235
-190 408 -10 75 -10 149 4 429 9 187 23 404 31 484 8 80 22 251 30 380 8 129
19 269 25 310 13 96 30 358 30 461 l0 79 -359 0 -358 0 -7 -92 c-9 -135 -54
-890 -66 -1123 -21 -400 -98 -904 -172 -1135 -37 -116 -114 -255 -169 -304
-119 -107 -316 -125 -449 -41 -114 72 -191 243 -168 375 11 62 39 112 157 280
143 202 243 362 291 466 187 402 285 844 306 1377 l7 187 -164 0 c-305 0 -441
-57 -588 -246 -31 -40 -78 -111 -106 -159 l-50 -87 -60 7 c-33 3 -61 8 -62 9
-3 2 74 213 126 346 58 149 140 316 178 365 78 99 177 157 340 200 218 56 346
61 1621 63 l1022 2 0 -260z"/>
</g>
</svg>
