<?xml version="1.0" encoding="utf-8"?>
<!-- Generator: Adobe Illustrator 19.2.1, SVG Export Plug-In . SVG Version: 6.00 Build 0)  -->
<svg version="1.1" xmlns="http://www.w3.org/2000/svg" xmlns:xlink="http://www.w3.org/1999/xlink" x="0px" y="0px"
	 viewBox="0 0 160 200" enable-background="new 0 0 160 200" xml:space="preserve">
<g id="Layer_3">
</g>
<g id="Layer_1">
	<path fill="#FFFFFF" d="M-557.7,389.1"/>
	<line fill="none" x1="-779.9" y1="-978" x2="-1417.2" y2="-978"/>
	<line fill="none" x1="498.4" y1="1491" x2="498.4" y2="-667.5"/>
	<line fill="none" x1="498.4" y1="1491" x2="498.4" y2="-667.5"/>
	<line fill="none" x1="529.8" y1="-698.9" x2="529.8" y2="1522.5"/>
	<line fill="none" x1="529.8" y1="-698.9" x2="529.8" y2="1522.5"/>
	<path fill="#FFFFFF" d="M64,29.1c0.4-0.3,0.6-0.6,0.9-0.8c0.3-0.2,0.5-0.3,0.9-0.1c0.9,0.5,1.9,0.3,2.9,0.2c0.3,0,0.6-0.3,0.7-0.6
		c0.6-1,0.5-2.7-1-3.4c-0.6-0.3-1.1-0.7-1.4-1.3c-0.2-0.3-0.4-0.6-0.6-0.9c-0.2-0.4-0.2-0.9,0-1.3c0.1-0.3,0.1-0.5,0.2-0.8
		c0.1-0.7,0.5-1.2,1.3-1.2c1,0,1.8-0.3,2.5-0.9c0.4-0.4,0.5-0.7,0.2-1.2c0,0,0-0.1,0-0.1c-0.2-0.4-0.6-0.8-0.5-1.2
		c0.2-0.8,0.6-1.6,0.9-2.4c0-0.1,0.2-0.2,0.2-0.2c0.5,0,1.1-0.1,1.6,0c0.8,0.2,1.5,0.4,2.2,0.7c0.7,0.2,1.3-0.2,1.8-0.5
		c0.7-0.5,1.4-1,1.6-1.9c0.1-0.4,0.4-0.6,0.9-0.6c0.9,0,1.4,0.4,1.6,1.2c0.1,0.4,0.1,0.9,0.3,1.3c0.2,0.4,0.5,0.9,0.8,1.2
		c0.4,0.4,0.8,0.3,1.2-0.1c0.4-0.3,0.7-0.7,1.1-1.1c0.4-0.6,0.4-1.2,0-1.8c-0.2-0.3-0.4-0.7-0.5-1c-0.1-0.2-0.1-0.3,0-0.6
		c0.1,0.1,0.2,0.3,0.3,0.4c0.1,0.2,0.2,0.5,0.4,0.7c0.8,0.7,1,1.7,1.2,2.6c0.1,0.6,0.5,1,1,1.3c0.4,0.3,1.3-0.1,1.6-0.6
		c0.1-0.1,0.1-0.2,0.2-0.3c0.1-1.2,0.4-2.5-0.4-3.6c-0.3-0.4-0.8-0.6-1.2-0.8c-0.3-0.1-0.4-0.4-0.2-0.6c0.5-0.4,1-0.8,1.5-1.1
		c0.5-0.3,0.8-0.2,1.1,0.3c0.4,0.7,0.7,1.4,0.9,2.2c0.3,1.1,0.6,2.2,0.8,3.3c0,0.2,0.1,0.3,0.1,0.5c0,1.4,0.4,2.7,1.2,3.9
		c0.2,0.3,0.6,0.7,1,0.8c0.7,0.3,1.4-0.1,1.5-0.8c0.1-1.1,0.2-2.2-0.1-3.4c-0.2-0.5-0.2-1.1-0.4-1.7c-0.2-0.6-0.4-1.2-0.7-1.8
		c-0.2-0.7-0.6-1.3-0.7-2c-0.1-0.9,0.6-1.6,1.4-1.9c0.7-0.2,1.4-0.6,2-0.9c0.3-0.2,0.6-0.6,0.6-0.9c0.2-0.9,0.4-1.9-0.3-2.8
		c-0.1-0.2-0.2-0.4-0.3-0.7c0.2,0,0.3,0,0.4,0.1c0.9,0.5,1.8,0.6,2.8,0.5c1.5,0,1.8,0.2,2.3,1.6c0.4,1,0.8,2,1.6,2.7
		c1.3,1.1,2.6,1.9,4.4,1.8c0.2,0,0.6,0.1,0.6,0.2c0,0.2,0,0.5-0.2,0.7c-0.3,0.4-0.7,0.7-1.1,1c-1,0.6-1.8,1.4-2.5,2.3
		c-0.7,0.9-1.6,1.6-2.6,2.2c-0.9,0.5-1.8,0.9-2.6,1.4c-0.8,0.6-1.5,1.3-2.2,1.9c-0.2,0.2-0.4,0.4-0.6,0.5c-0.4,0.3-0.4,0.7-0.2,1
		c0.2,0.3,0.6,0.4,1,0.2c0.7-0.3,1.4-0.5,2.1-0.7c0.7-0.2,1.4-0.4,2.2-0.5c0.2,0,0.5,0,0.7,0c1.4,0,2.7-0.5,3.8-1.2
		c0.9-0.6,1.3-1.5,1.7-2.4c0.3-0.6,0.5-1.3,0.8-1.9c0.2-0.5,0.6-0.8,1.2-0.8c0.3,0,0.6,0,0.8,0c1.4,0,2.8-0.4,4-1.1
		c1.3-0.8,2.7-1.5,4-2.3c0.4-0.2,0.8-0.5,1.2-0.8c1.2-0.9,2.6-1.1,4-0.4c0.7,0.3,1.3,0.7,1.9,1.1c0.8,0.4,1.5,0.7,2.3,1
		c0.3,0.1,0.7,0,1-0.2c0.6-0.3,1-0.7,1.6-1c0.2-0.1,0.5-0.2,0.7-0.1c0.8,0.4,1.6,0.9,2.4,1.4c0.2,0.2,0.3,0.5,0.4,0.8
		c0.4,1,0.2,2,0.3,3.1c0.1,0.7,0.5,1.3,1.2,1.6c0.3,0.1,0.5,0.3,0.5,0.7c0.1,0.7,0.2,1.4,0.3,2.1c0.1,1.1,0.7,2,1.6,2.5
		c1.3,0.9,1.9,2.1,2.4,3.5c0.3,0.8,0.5,1.6,1.3,2.2c0.4,0.3,0.8,0.5,1.2,0.7c0.5,0.2,1,0.2,1.5,0.3c0.7,0.1,1.1,0.5,1.1,1.2
		c0,0.8-0.1,1.7-0.2,2.5c-0.1,0.7-0.6,1.1-1.2,1.4c-0.3,0.2-0.5,0.3-0.8,0.4c-1.1,0.5-1.9,1.3-2.6,2.2c-0.7,0.8-1.1,1.6-1.2,2.7
		c-0.1,0.6-0.2,1.1,0,1.7c0.4,0.9,0.9,1.1,1.7,0.7c0.4-0.2,0.7-0.5,1-0.8c1.1-1.1,2.1-2.2,3.6-2.8c1-0.4,1.9-0.9,3-0.7
		c0.3,0.1,0.8,0.2,1,0.5c0.3,0.4,0.5,0.9,0.7,1.4c0.2,0.6,0.3,1.1,0.5,1.7c0.1,0.6,0.4,1.2,0.3,1.8c0,1.2,0.4,2.3,0.7,3.4
		c0.2,0.8,0.7,1.5,0.9,2.3c0.3,0.9,0.8,1.8,0.7,2.8c-0.1,0.5-0.2,1-0.3,1.5c-0.8-0.3-1.4-1.1-1.3-1.9c0.1-1.3-0.2-2.6-0.7-3.8
		c-0.7-1.7-1.4-3.5-2.8-4.9c-1.1-1.1-2.4-1-3.2,0.4c-0.3,0.6-0.6,1.2-0.1,1.9c0.4,0.6,0.7,1.3,1,2c0.3,0.6,0.8,1.3,0.9,1.9
		c0.1,0.8,0,1.6,0,2.4c-0.1,0.7-0.4,1.5-0.4,2.2c-0.1,0.8,0.5,1.2,1.3,0.9c0.6-0.2,1.2-0.3,1.9-0.1c0.7,0.2,1.2,1.1,0.9,1.9
		c-0.1,0.3-0.2,0.5-0.3,0.8c-0.1,0.5-0.5,0.8-0.9,1c-1.1,0.5-2.2,0.8-3.3,0.9c-0.3,0-0.6,0.1-0.8,0.3c-0.5,0.2-0.9,0.4-1.3,0.6
		c-1.4,0.5-2,1.6-2.4,2.9c-0.4,1.2-0.4,2.6-1.1,3.7c-0.1,0.2-0.2,0.4-0.4,0.5c-0.8,0.9-1.7,1.7-2.4,2.7c-1,1.3-2.3,2.2-3.8,2.6
		c-0.5,0.1-1.1,0.1-1.6,0c-1.1-0.2-2.1-0.5-3.1-0.8c-0.1,0-0.3,0-0.4,0c-0.6,0.2-1.4,1.2-1.4,1.8c0,0.2,0,0.4,0,0.6
		c0.1,0.8-0.1,1.4-0.5,2.1c-0.3,0.5-0.4,1.1-0.6,1.6c-0.2,0.7,0.6,2.3,1.4,2.4c0.8,0.1,1.5,0.7,2.1,1.2c0.2,0.2,0.3,0.5,0.3,0.8
		c0,0.5,0,1.1,0,1.6c0,0.5,0.2,1,0.2,1.5c0.1,0.6,0.1,1.3,0.1,1.9c0,1.1,0.2,2.1,0.8,3c0.3,0.5,0.6,0.9,0.9,1.3
		c0.4,0.6,0.9,1.2,1.3,1.9c0.4,0.6,0.6,1.2,0.7,2c0.1,0.9,0.6,1.5,1.1,2.1c0.1,0.2,0.3,0.4,0.5,0.6c-0.2,0-0.4,0.1-0.5,0.1
		c-0.6,0-1.1,0.1-1.6,0.4c-0.6,0.4-0.9,1.1-0.5,1.7c0.3,0.5,0.9,0.9,1.3,1.3c0.2,0.2,0.3,0.3,0.3,0.6c0,1,0,1.9,0,2.9
		c-0.1,0-0.2,0-0.3-0.1c-1-0.3-2.4,0.6-2.3,1.8c0.1,1.8,1,3.1,2.6,3.9c0.6,0.3,0.8,0.8,0.9,1.4c0,0.6,0,1.2,0,1.8
		c-0.1,0.8,0.2,1.5,0.4,2.3c0.2,0.7,0.3,1.4,0.4,2.1c0.3,1.3,0.3,2.8,1,4c0.1,0.1,0.1,0.2,0.1,0.3c0.1,1.2,0.5,2.4,0.3,3.6
		c0,0.3-0.2,0.7-0.3,1c-0.3,0.9-0.5,1.9-0.6,2.8c-0.1,1.1-0.4,2.1-0.7,3.2c-0.2,0.9-0.4,1.7-0.6,2.6c-0.3,1.2-1.1,2.2-1.7,3.2
		c-0.5,0.8-0.8,1.6-1.1,2.5c-0.1,0.4,0,0.8,0.1,1.2c0.1,0.8,0.3,1.5,0.4,2.3c0,0.2-0.1,0.5-0.2,0.7c-0.4,0.8-1,1.5-1.4,2.3
		c-0.4,0.8-0.6,1.6-1,2.4c-0.3,0.7-0.6,1.4-1.1,2c-0.5,0.7-1.1,1.4-1.6,2.1c-0.7,1-0.9,2.3-1.2,3.4c0,0.1-0.1,0.2-0.1,0.3
		c-0.1,0-0.1,0-0.1,0c-1.1-0.8-2.2-0.7-3.3-0.1c-0.4,0.2-0.7,0.6-0.7,1c0,0.6,0.4,1,0.9,1.1c1.2,0.2,1.7,1.2,2.5,1.9
		c0.6,0.5,1.2,1,1.8,1.5c0.1,0.1,0.3,0.3,0.3,0.5c0.2,0.8-0.1,1.6-0.3,2.4c0,0.1-0.2,0.2-0.3,0.2c-0.6-0.1-1.2,0.2-1.5,0.7
		c-0.4,0.6-1.1,0.8-1.7,1c-0.1,0-0.3,0-0.4,0.1c-0.6,0.3-0.8,0-1.1-0.5c-0.2-0.4-0.4-0.8-0.7-1c-0.9-0.7-2-1.1-3.2-0.7
		c-0.4,0.1-0.6,0.1-0.8-0.3c-0.5-0.8-1.3-1.3-2.2-1.5c-1.1-0.2-2.1,0.3-2.4,1.3c-0.2,0.4-0.2,0.9-0.3,1.3c-0.1,0.3-0.4,0.7-0.6,0.9
		c-0.3,0.3-0.8,0.4-1.2,0.6c0-0.5,0-1.1,0-1.6c-0.1-1.2-1.8-2.4-3-2c-0.3,0.1-0.6,0.6-0.7,0.9c-0.4,0.8-0.5,1.7-0.4,2.6
		c0,0.1,0,0.2,0,0.3c0,0,0,0-0.1,0.1c0,0-0.1,0-0.1,0c-0.6-0.9-0.8-1-1.8-0.6c-0.9,0.4-1.6,1.1-2.3,1.7c-1,0.9-1.3,1-2.5,0.4
		c-1.6-0.8-3-0.5-4.5,0.2c-0.6,0.3-1.3,0.5-2,0.5c-1.4-0.1-2.8,0.2-4.1,0.7c-0.7,0.2-1.4,0.7-2,1.1c-0.5,0.3-0.5,1.1,0.1,1.4
		c0.4,0.3,1,0.4,1.5,0.6c0.3,0.1,0.6,0.2,0.9,0.4c-0.2,0.3-0.5,0.7-0.7,1c-0.1,0.1-0.3,0.2-0.5,0.2c-1,0.2-1.9,0.7-2.7,1.5
		c-0.3,0.3-0.6,0.5-1,0.8c-0.1,0.1-0.2,0.1-0.3,0c-1.2-0.6-2.4-0.8-3.6-0.4c-0.2,0.1-0.5,0-0.7,0.1c-0.6,0-0.9,0.3-0.9,0.9
		c0,0.4-0.2,0.8-0.5,1.1c-0.3,0.4-0.4,0.9-0.7,1.3c-0.1,0.3-0.4,0.5-0.6,0.7c-1,0.7-2,1.5-3,2.1c-1,0.7-2,1.3-3,1.9
		c-0.2,0.1-0.4,0.2-0.7,0.2c-0.8,0-1.7,0-2.5,0c-0.8,0-1.5,0.3-2.1,0.9c-0.6,0.5-1.2,1-1.7,1.5c-0.3,0.3-0.7,0.3-1,0
		c-0.3-0.2-0.6-0.4-0.8-0.6c-0.7-0.6-1.5-0.9-2.5-0.9c-0.8,0-1.6,0-2.4,0.5c-0.5,0.3-1,0.3-1.6,0.4c-1,0.1-2,0.9-2.2,1.9
		c-0.2,1.1-0.4,2.3-0.6,3.4c-0.2,1-0.7,1.6-1.7,1.9c0,0-0.1,0-0.1,0c-0.9,0.6-1.6,0.3-2.3-0.4c-0.1-0.1-0.2-0.2-0.2-0.3
		c-0.1-0.2-0.3-0.4-0.4-0.6c-0.8-0.7-1.9-0.4-2.1,0.7c-0.1,0.6,0,1.2-0.1,1.8c-0.1,0.4-0.2,0.9-0.4,1.3c-0.1,0.2-0.4,0.2-0.6,0.3
		c-0.3,0.1-0.6,0.3-1,0.4c-0.2,0.1-0.5,0.1-0.7,0c-0.6-0.3-1.3-0.6-1.9-0.9c-0.8-0.4-1.6-0.4-2.2,0.4c-0.5,0.6-0.9,1.2-1.3,1.8
		c-0.2,0.3-0.4,0.5-0.6,0.7c-0.2,0.2-0.3,0.2-0.5,0c-0.3-0.4-0.7-0.9-1-1.3c-0.7-0.7-2-0.8-2.7-0.1c-0.5,0.4-1,0.6-1.6,0.8
		c-0.5,0.1-1,0.4-1.6,0.6c-0.4,0.2-0.8,0.3-1.2,0.5c0-0.1-0.1-0.1-0.1-0.2c0.1-0.2,0.3-0.4,0.4-0.7c0.2-0.6,0.5-1.1,0.6-1.7
		c0.1-0.7-0.6-1.4-1.3-1.5c-0.2,0-0.4-0.1-0.5-0.3c-0.5-0.6-1.1-0.7-1.7-0.2c-0.9,0.7-1.8,1.5-2.7,2.2c-0.5,0.4-1,0.6-1.6,0.6
		c-0.6,0-1.3,0.3-2,0.3c0.7-0.5,1.3-1.1,2-1.6c0.5-0.4,1.1-0.8,1.7-1.2c0.5-0.4,1-0.8,1.5-1.1c0.5-0.3,0.6-0.8,0.6-1.3
		c-0.1-0.5-0.5-0.7-1-0.8c0,0-0.1,0-0.1-0.1c0,0,0-0.1,0-0.1c1.4-0.9,2.5-2.2,4.2-2.6c0.6-0.2,1-0.8,1-1.4c0.1-0.7-0.1-1.4-0.2-2
		c-0.1-0.6-0.6-0.9-1.2-0.9c-1.4-0.1-2.7,0.4-3.9,1.1c-0.5,0.3-1.1,0.6-1.6,0.9c-0.5,0.3-0.9,0.6-1.4,0.9c-0.8,0.7-1.7,0.9-2.8,0.6
		c-0.6-0.2-1.4,0-2,0c-0.3,0-0.6,0.1-0.9,0.2c-0.6,0.4-1.2,0.8-1.8,1.3c-0.3,0.2-0.5,0.6-0.7,0.9c-0.4,0.5-0.9,0.7-1.5,0.8
		c-0.7,0.1-1.4,0.2-2,0.3c-0.5,0.1-0.9-0.2-1.2-0.6c0.1-0.1,0.2-0.1,0.3-0.2c0.6-0.5,1.2-1,1.9-1.3c0.5-0.3,1.1-0.4,1.7-0.5
		c1-0.2,1.7-0.8,2.4-1.4c0.4-0.3,0.2-1-0.2-1.2c-0.1-0.1-0.3-0.1-0.6-0.2c0.7-0.2,1.2-0.5,1.8-0.6c0.8-0.2,1.4-0.6,1.6-1.3
		c0.3-0.9,1-1.3,1.8-1.6c1-0.4,1.8-0.9,2.7-1.4c0.6-0.3,1.2-0.7,1.9-1.1c0.8-0.5,1.5-1,2.3-1.5c0.5-0.3,0.6-0.7,0.4-1.2
		c-0.2-0.5-0.5-0.6-1-0.6c-0.5,0-1,0-1.6,0c-0.8,0-1.5,0.1-2.3,0.4c-0.8,0.3-1.6,0.5-2.4,0.8c-1.4,0.7-2.8,1.1-4.2,1.7
		c-1.1,0.5-2,1.4-3.1,2.1c-0.3,0.2-0.7,0.5-1,0.8c-0.2,0.2-0.5,0.2-0.5-0.2c-0.1-0.6-0.7-0.8-1.2-1c-0.3-0.1-0.6-0.3-0.8-0.5
		c-0.1-0.1-0.1-0.3,0-0.4c0.2-0.3,0.5-0.5,0.8-0.7c1-0.8,1-2.2,0-2.9c-0.1,0-0.1-0.1-0.2-0.1c-1.2-0.8-1.8-0.4-2.6,0.7
		c-0.4,0.6-0.8,1.2-1.1,1.8c-0.1,0.1-0.2,0.3-0.3,0.4c-0.1,0-0.1-0.1-0.2-0.1c0-0.1,0.1-0.3,0.1-0.4c0.1-0.6,0.2-1.2,0.1-1.8
		c0-0.5-0.5-0.8-1.1-0.8c-0.4,0-0.8,0-1.2,0c-0.3,0-0.4-0.1-0.3-0.4c0.1-0.3,0.1-0.6,0.1-0.9c0.1-0.7,0.4-1.2,1-1.7
		c1.5-1.1,3.4-1.7,5-2.6c0.7-0.4,1.5-0.4,2.2-0.7c1-0.4,1.9-0.9,2.8-1.5c0.5-0.3,0.9-0.7,1.3-1c0.3-0.2,0.6-0.3,1-0.2
		c0.2,0.1,0.5,0.1,0.7,0.1c1.1-0.2,2.3-0.3,3.3-1c1.1-0.8,2.2-1.6,3.3-2.4c0.7-0.5,0.6-1.1-0.1-1.6c-0.8-0.5-2.3-0.5-3,0.1
		c-0.9,0.8-2.1,1-3.2,1c-1.6,0-3.3,0-5,0c-1,0-1.9,0.4-2.8,0.7c-0.5,0.1-1,0.3-1.5,0.4c-0.1,0-0.3,0-0.5,0c-1-0.2-2.1-0.6-3.1-0.7
		c-0.6-0.1-1.3-0.1-1.9,0.1c-0.7,0.2-1.3-0.1-1.3-0.9c0-0.7,0.1-1.3,0.2-2c0.2,0,0.4,0,0.5,0c0.8,0,1.6-0.6,1.8-1.4
		c0.1-0.5,0.4-1,0.7-1.4c0.4-0.7,0.8-1.3,1.3-2c0.1-0.1,0.3-0.2,0.5-0.2c1,0.1,2,0.2,2.9,0.3c0.3,0.1,0.6,0.4,0.9,0.6
		c0.2,0.1,0.4,0.3,0.6,0.4c0.4,0.2,0.8,0.1,1.1-0.3c0.3-0.3,0.6-0.6,0.9-0.9c0.4-0.4,0.5-0.4,0.7,0.1c0.5,1,0.9,2.2,1.8,2.9
		c0.4,0.3,0.8,0.5,1.3,0.5c0.9,0.1,1.9,0.2,2.8-0.4c0.5-0.4,1.1-0.8,0.9-1.5c-0.1-0.3-0.3-0.6-0.5-0.8c-0.2-0.2-0.3-0.3-0.2-0.5
		c0.1-0.2,0.2-0.4,0.3-0.6c0.4-0.6,0.4-1.1,0.2-1.7c-0.4-0.9-1.1-1.5-1.8-2.1c-0.3-0.3-0.7-0.5-1.1-0.8c0.7-0.5,1.3-0.8,1.9-1.3
		c0.4-0.3,0.7-0.6,1-0.9c0.7-0.5,1.4-1,2.2-1.5c0.1-0.1,0.2-0.1,0.3-0.1c1.1-0.2,1.9-0.9,2-2.1c0.1-1.3,0.8-1.6,1.9-1.7
		c0.9,0,1.8-0.4,2.7-0.3c0.6,0.1,1.2,0.3,1.8,0.3c0.7,0,1.4-0.1,2-0.3c1-0.3,2-0.6,2.9-1.3c0.5-0.4,0.8-0.9,0.6-1.5
		c-0.1-0.4-0.3-0.7-0.7-0.7c-0.5,0-1.1,0-1.6,0.1c-0.6,0.1-1.1,0.2-1.6-0.2c-0.3-0.3-0.7-0.5-1-0.8c-0.8-0.7-1.7-0.8-2.6-0.2
		c-0.4,0.2-0.7,0.6-1.1,0.8c-0.4,0.2-0.8,0.4-1.2,0.5c-1,0.3-2,0.1-2.9,0.3c-1.3,0.3-2.5,0.7-3.8,1.2c-0.6,0.2-1.1,0.5-1.7,0.7
		c-0.2,0.1-0.6,0.3-0.7-0.1c0-0.2,0.2-0.6,0.4-0.8c0.4-0.3,1-0.5,1.4-0.8c0.6-0.3,1.1-0.7,1.6-1.1c0.6-0.4,1.2-0.8,1.9-1.3
		c0.5,1.1,1,1.2,1.8,0.4c0.5-0.5,1-1.2,1.5-1.8c0.5-0.7,1.1-1.3,1.7-1.9c0.1-0.1,0.2-0.1,0.3-0.1c1.7,0.7,2.8-0.4,3.2-1.8
		c0.3-1,0.5-2,0.8-2.9c0.1-0.3,0.2-0.5,0.4-0.7c0.6-0.8,1.3-1.7,2-2.5c0,0,0.1-0.1,0.1-0.1c1.1-1.1,0.6-1.9-0.5-2.7
		c-0.2-0.1-0.5-0.1-0.8,0c-0.6,0.1-1.1,0.4-1.7,0.5c-0.1,0-0.2,0-0.4,0c0-0.1,0-0.2,0.1-0.3c1.2-1.2,1.9-2.7,2.6-4.2
		c0.4-1,0.8-2.1,1.2-3.1c0.2-0.5,0.4-1,0.7-1.5c0.3-0.5,0.4-0.5,0.9-0.2c1,0.7,2,1,3.2,0.8c0.7-0.1,1.2-0.4,1.7-0.9
		c0.4-0.4,0.9-0.8,1.5-1c0.5-0.2,1.1-0.2,1.6-0.4c0.8-0.2,1.6-0.4,2.3-0.7c1.2-0.6,2-1.6,2.6-2.8c0.1-0.3,0.1-0.8-0.1-1.1
		c-0.4-0.6-0.9-1.1-1.6-1.3c-0.1,0-0.2-0.1-0.3-0.1c-0.8,0.1-1.4-0.2-2.1-0.4c-0.3-0.1-0.8,0-1.1,0.2c-0.7,0.3-1.3,0.8-2,1.2
		c-0.2,0.1-0.3,0.2-0.5,0.2c-1.5,0.1-3,0.3-4.5,0.3c-1.1,0-2.1-0.3-3.2-0.5c-0.2,0-0.4-0.1-0.6-0.1c-0.9,0-1.9,0-2.8,0
		c-0.3,0-0.5,0-0.7-0.3c-0.2-0.2-0.4-0.4-0.6-0.6c0,0,0.1,0,0.1,0c0.1-0.3,0.2-0.7,0.2-1c0-0.3-0.1-0.4-0.4-0.4c-0.2,0-0.4,0-0.5,0
		c-0.7-0.3-1.4-0.1-1.8,0.4c-0.2,0.2-0.4,0.4-0.5,0.6c-0.2,0.5-0.6,0.8-1,0.9c-0.2,0.1-0.6,0.1-0.7-0.1c-0.1-0.1-0.1-0.5,0-0.7
		c0.4-0.7,0.9-1.3,1.6-1.7c0.7-0.4,1.3-1,1.7-1.7c0.2-0.5,0.3-0.9,0.1-1.3c-0.2-0.5-0.3-1-0.5-1.4c-0.4-0.9-1.1-1.3-2-1
		c-0.2,0.1-0.4,0.2-0.6,0.4c-0.8,0.8-1.5,1.6-2.2,2.4c-0.7,0.7-1.6,0.9-2.5,0.8c-0.6-0.1-1-1-0.8-1.6c0.2-0.7,0.7-1.1,1.4-1.3
		c0.9-0.2,1.8-0.6,2.1-1.6c0-0.1,0.2-0.2,0.3-0.3c0.3-0.2,0.4-0.5,0.2-0.9c-0.2-0.3-0.4-0.5-0.8-0.4c-0.5,0-1.1,0.1-1.6,0.1
		c-0.8,0-1.3,0.3-1.8,0.9c-0.8,0.8-1.6,1.6-2.5,2.4c-0.2,0.2-0.5,0.1-0.6-0.1c-0.2-0.7-0.5-1.4-0.7-2.1c-0.1-0.6-0.4-0.9-1.1-1
		c1-0.4,0.9-1.1,0.9-1.8c0-0.1,0-0.2,0-0.3c0-1.3,0-1.2-1.2-1.7c-0.5-0.2-0.9-0.5-1.4-0.9c-0.2-0.2-0.4-0.6-0.3-0.8
		c0.1-0.4,0.4-0.6,0.9-0.7c0.5,0,1,0,1.6,0c0.3,0,0.5,0,0.8-0.1c0.7-0.2,0.9-0.7,0.7-1.3c0-0.1-0.1-0.2,0-0.4
		c0.2,0.2,0.4,0.3,0.6,0.5c0.7,0.6,1.6,0.7,2.3,0.1c0.4-0.3,0.8-0.7,1.2-1.1c0.2-0.2,0.2-0.5,0.2-0.7c0-1.1,0-2.2,0-3.3
		c0-0.2,0-0.5-0.1-0.7c-0.3-0.6-0.2-1.1,0.2-1.6c0.2-0.3,0.4-0.7,0.6-1c0,0,0-0.1,0.1-0.1c0.7-0.4,1.3-1,2.1-1.1
		c1.3-0.1,2.7-0.2,4-0.3c0.5-0.1,1.1-0.2,1.6-0.3c1.1-0.3,1.4-1,1-2.1c-0.2-0.7-0.3-1.4-0.4-2.2c0-0.6-0.1-1.2-0.5-1.7
		c-0.1-0.1-0.1-0.3-0.2-0.4c-0.3-0.9-0.9-1.4-1.8-1.6c-0.2,0-0.4-0.1-0.5-0.2c-0.5-0.2-1.1,0-1.3,0.4c-0.2,0.4-0.5,0.9-0.8,1.2
		c-0.7,0.8-1.8,1.3-2.9,0.9c-0.8-0.3-1.5-0.4-2.4-0.5c-0.7,0-1.5-0.2-2.2-0.5c-0.3-0.1-0.6-0.4-0.7-0.7c-0.2-0.5-0.3-1-0.3-1.5
		c-0.1-0.9-0.6-1.4-1.5-1.4c-0.3,0-0.6,0-0.9,0c-0.6,0-0.9-0.3-1.1-1c0.1,0,0.3,0,0.4,0c0.7,0.4,1.3,0.2,1.9-0.1
		c0.7-0.4,1.5-0.5,2.3-0.5c0.4,0,0.9-0.1,1.3-0.3c0.4-0.2,0.6-0.1,0.7,0.3c0.1,0.5,0.2,1.1,0.4,1.5c0.2,0.4,0.4,0.9,0.8,1.2
		c0.4,0.4,1,0.8,1.5,1.1c0.8,0.5,1.7-0.1,1.8-1c0.1-1.2-0.4-2-1.1-2.8c-0.2-0.2-0.3-0.4-0.5-0.5c-0.3-0.3-0.4-0.6-0.2-1.1
		c0.4-1.1,0.1-1.7-0.8-2.1c-0.2-0.1-0.4-0.2-0.6-0.3c-0.3-0.1-0.4-0.4-0.4-0.7c0-0.4,0.1-0.7,0.5-0.9c0.6-0.3,0.8-1.2,0.2-1.5
		c-0.4-0.2-0.8-0.3-1.3-0.4c-0.3-0.1-0.6,0-0.9-0.2c-1.6-0.6-2.2,0-2.6,1.6c-0.1,0.6-0.3,1.1-0.4,1.7c-0.1,0-0.1,0-0.2,0
		c0-0.2,0-0.4,0-0.5c0.2-0.8,0.3-1.7,0.5-2.5c0-0.2,0.1-0.4,0.2-0.5c0-0.2,0.1-0.5,0-0.7c-0.4-1-0.2-1.9,0.4-2.7
		c0.5-0.6,1.1-1.2,1.8-1.6c0.3-0.2,0.7-0.1,1.1-0.1c0.1,0,0.3,0.3,0.3,0.5c0.1,0.8,0.2,1.6,0.3,2.5c0.1,0.4,0.3,0.8,0.5,1.1
		c0.4,0.6,1.1,0.5,1.5-0.2c0.1-0.1,0.1-0.2,0.1-0.4c-0.2-1.1,0.5-1.8,1.2-2.4c0.7-0.6,0.5-1.3,0.4-2.1c-0.1-0.2-0.1-0.5-0.2-0.8
		c0.7,0.1,1.3,0.2,1.9,0.3c1.7,0.3,3.4,0.4,5.1-0.1c0.5-0.2,1.1-0.2,1.6-0.2c0.1,0,0.3,0.1,0.4,0.2c0.3,0.3,0.6,0.6,0.9,0.9
		c0.3,0.5,0.8,0.7,1.4,0.5c0.6-0.1,1.2-0.4,1.8-0.6c0.3-0.1,0.6-0.1,0.9-0.1c0.8,0.2,1.5,0.5,2.2,0.7c0.5,0.2,0.6,0.6,0.7,1.1
		c0.2,0.6,0.2,1.3,0.3,1.9c0.2,0.9,0.4,1.7,0.7,2.5c0.3,0.8,1.1,1,2,0.6c0.8-0.3,1.5-0.9,1.8-1.7c0.4-0.7,0.6-1.5,0.9-2.3
		c0.3-0.8,1.6-1.7,2.6-1.3c0.5,0.2,0.7,0.6,0.9,1c0.6,1.3,1.8,1.5,3.2,1.1c0.5-0.1,1-0.4,1.5-0.6c0.4-0.2,0.9-0.1,1.2,0.2
		c0.8,0.7,1.4,1.5,2.4,2c0.4,0.2,0.7,0.3,1.1,0c0.3-0.3,0.2-0.6,0.1-1c-0.1-0.5-0.1-0.9-0.1-1.6c0.4,0.2,0.6,0.3,0.8,0.5
		c0.5,0.3,1,0.4,1.6,0.1c0.7-0.4,1.3-0.9,2-1.3c0,0,0,0,0,0c0.8-0.8,0.8-1.4,0-2.3c-0.5-0.5-1-0.8-1.8-0.8c-0.6,0.1-1.2,0-1.8,0
		c-0.2,0-0.5,0-0.6-0.1c-0.3-0.2-0.4-0.4-0.1-0.7c0.7-0.8,1.4-1.7,2.3-2.3c0.4-0.3,0.8-0.8,1.2-1.2c0.3-0.2,0.5-0.5,0.8-0.6
		c1.6-0.9,3.4-1.6,5.1-2.1c0.9-0.3,1.5-0.9,1.9-1.6c0.1-0.2,0.1-0.5,0.1-0.7c-0.1-0.3,0-0.5,0.2-0.7c1.1-1,2.2-1.9,3.3-2.9
		c0.7-0.6,1.2-1.3,1.1-2.4c-0.1-1-0.6-1.4-1.6-1.1c-0.3,0.1-0.8-0.1-1.1-0.2c-0.9-0.4-1.9-0.3-2.8-0.1c-0.6,0.1-1.1,0.7-1.6,1.1
		c-0.5,0.4-1,0.9-1.6,1.4c0.1-0.4,0.2-0.6,0.2-0.9c0.1-0.8-0.6-1.4-1.3-1.1c-0.6,0.2-1.1,0.2-1.7,0c-0.3-0.1-0.7-0.1-1.1-0.1
		c-1.2,0-2.4,0-3.6,0c-1.1,0-1.9-0.6-2.5-1.5c-0.3-0.5-0.2-1.1,0.2-1.5c0.5-0.5,0.9-1,1.4-1.4c0.5-0.5,1.1-0.9,1.8-1
		c0.5,0,1.1-0.3,1.6-0.4c0.3-0.1,0.6-0.1,0.8-0.1c0.1,0,0.3,0,0.4,0c0.5-0.1,1-0.3,1.2-0.8c0.2-0.5-0.1-1-0.5-1.3
		C64.4,29.4,64.2,29.3,64,29.1z"/>
	<path fill="#35A7DE" d="M41.2,88.7c0,2.6-2.1,4.7-4.7,4.7s-4.7-2.1-4.7-4.7c0-2.6,2.1-4.7,4.7-4.7S41.2,86.1,41.2,88.7"/>
	<path fill="#35A7DE" d="M52.3,83.7c0,2.6-2.1,4.7-4.7,4.7s-4.7-2.1-4.7-4.7c0-2.6,2.1-4.7,4.7-4.7S52.3,81.1,52.3,83.7"/>
	<path fill="#35A7DE" d="M71.5,23.6c0,2.6-2.1,4.7-4.7,4.7s-4.7-2.1-4.7-4.7c0-2.6,2.1-4.7,4.7-4.7S71.5,21.1,71.5,23.6"/>
	<path fill="#35A7DE" d="M72.7,30.7c0,2.6-2.1,4.7-4.7,4.7s-4.7-2.1-4.7-4.7c0-2.6,2.1-4.7,4.7-4.7S72.7,28.1,72.7,30.7"/>
	<path fill="#35A7DE" d="M90.7,14c0,2.6-2.1,4.7-4.7,4.7s-4.7-2.1-4.7-4.7c0-2.6,2.1-4.7,4.7-4.7S90.7,11.4,90.7,14"/>
	<path fill="#35A7DE" d="M90.2,21.3c0,2.6-2.1,4.7-4.7,4.7s-4.7-2.1-4.7-4.7c0-2.6,2.1-4.7,4.7-4.7S90.2,18.7,90.2,21.3"/>
	<path fill="#35A7DE" d="M96.9,26.2c0,2.6-2.1,4.7-4.7,4.7c-2.6,0-4.7-2.1-4.7-4.7c0-2.6,2.1-4.7,4.7-4.7
		C94.8,21.5,96.9,23.6,96.9,26.2"/>
	<path fill="#35A7DE" d="M31,156.1c0,2.6-2.1,4.7-4.7,4.7s-4.7-2.1-4.7-4.7c0-2.6,2.1-4.7,4.7-4.7S31,153.5,31,156.1"/>
	<path fill="#35A7DE" d="M59.6,68.6c0,2.6-2.1,4.7-4.7,4.7s-4.7-2.1-4.7-4.7c0-2.6,2.1-4.7,4.7-4.7S59.6,66,59.6,68.6"/>
	<path fill="#35A7DE" d="M73.3,47.5c0,2.6-2.1,4.7-4.7,4.7S64,50.1,64,47.5c0-2.6,2.1-4.7,4.7-4.7S73.3,44.9,73.3,47.5"/>
	<path fill="#35A7DE" d="M84.3,99.9c0,2.6-2.1,4.7-4.7,4.7s-4.7-2.1-4.7-4.7c0-2.6,2.1-4.7,4.7-4.7S84.3,97.3,84.3,99.9"/>
	<path fill="#35A7DE" d="M101.8,95c0,2.6-2.1,4.7-4.7,4.7c-2.6,0-4.7-2.1-4.7-4.7c0-2.6,2.1-4.7,4.7-4.7
		C99.7,90.3,101.8,92.4,101.8,95"/>
	<path fill="#35A7DE" d="M96.6,107.3c0,2.6-2.1,4.7-4.7,4.7s-4.7-2.1-4.7-4.7c0-2.6,2.1-4.7,4.7-4.7S96.6,104.7,96.6,107.3"/>
	<path fill="#35A7DE" d="M86.6,84.7c0,2.6-2.1,4.7-4.7,4.7s-4.7-2.1-4.7-4.7c0-2.6,2.1-4.7,4.7-4.7S86.6,82.1,86.6,84.7"/>
	<path fill="#35A7DE" d="M55.9,95.7c0,2.6-2.1,4.7-4.7,4.7s-4.7-2.1-4.7-4.7c0-2.6,2.1-4.7,4.7-4.7S55.9,93.1,55.9,95.7"/>
	<path fill="#35A7DE" d="M80,73.8c0,2.6-2.1,4.7-4.7,4.7c-2.6,0-4.7-2.1-4.7-4.7c0-2.6,2.1-4.7,4.7-4.7C77.9,69.1,80,71.2,80,73.8"
		/>
	<path fill="#35A7DE" d="M92.1,72.1c0,2.6-2.1,4.7-4.7,4.7s-4.7-2.1-4.7-4.7c0-2.6,2.1-4.7,4.7-4.7S92.1,69.5,92.1,72.1"/>
	<path fill="#35A7DE" d="M86.3,76.3c0,2.6-2.1,4.7-4.7,4.7s-4.7-2.1-4.7-4.7c0-2.6,2.1-4.7,4.7-4.7S86.3,73.7,86.3,76.3"/>
	<path fill="#35A7DE" d="M105.7,77.2c0,2.6-2.1,4.7-4.7,4.7s-4.7-2.1-4.7-4.7c0-2.6,2.1-4.7,4.7-4.7S105.7,74.7,105.7,77.2"/>
	<path fill="#35A7DE" d="M111.8,74.7c0,2.6-2.1,4.7-4.7,4.7s-4.7-2.1-4.7-4.7c0-2.6,2.1-4.7,4.7-4.7S111.8,72.1,111.8,74.7"/>
	<path fill="#35A7DE" d="M119.9,71.4c0,2.6-2.1,4.7-4.7,4.7c-2.6,0-4.7-2.1-4.7-4.7c0-2.6,2.1-4.7,4.7-4.7
		C117.8,66.7,119.9,68.8,119.9,71.4"/>
	<path fill="#35A7DE" d="M74.2,162.7c0,2.6-2.1,4.7-4.7,4.7c-2.6,0-4.7-2.1-4.7-4.7c0-2.6,2.1-4.7,4.7-4.7
		C72.1,158,74.2,160.1,74.2,162.7"/>
	<path fill="#35A7DE" d="M52.2,129.1c0,2.6-2.1,4.7-4.7,4.7s-4.7-2.1-4.7-4.7c0-2.6,2.1-4.7,4.7-4.7S52.2,126.5,52.2,129.1"/>
	<path fill="#35A7DE" d="M50.6,107.4c0,2.6-2.1,4.7-4.7,4.7s-4.7-2.1-4.7-4.7c0-2.6,2.1-4.7,4.7-4.7S50.6,104.8,50.6,107.4"/>
	<path fill="#35A7DE" d="M66.9,97.9c0,2.6-2.1,4.7-4.7,4.7c-2.6,0-4.7-2.1-4.7-4.7c0-2.6,2.1-4.7,4.7-4.7
		C64.8,93.2,66.9,95.3,66.9,97.9"/>
	<path fill="#35A7DE" d="M67.1,107.4c0,2.6-2.1,4.7-4.7,4.7s-4.7-2.1-4.7-4.7c0-2.6,2.1-4.7,4.7-4.7S67.1,104.8,67.1,107.4"/>
	<path fill="#35A7DE" d="M120.9,88.2c0,2.6-2.1,4.7-4.7,4.7c-2.6,0-4.7-2.1-4.7-4.7c0-2.6,2.1-4.7,4.7-4.7
		C118.8,83.5,120.9,85.6,120.9,88.2"/>
	<path fill="#35A7DE" d="M53,175.2c0,2.6-2.1,4.7-4.7,4.7c-2.6,0-4.7-2.1-4.7-4.7c0-2.6,2.1-4.7,4.7-4.7
		C50.9,170.5,53,172.6,53,175.2"/>
	<path fill="#35A7DE" d="M83.4,151.6c0,2.6-2.1,4.7-4.7,4.7c-2.6,0-4.7-2.1-4.7-4.7c0-2.6,2.1-4.7,4.7-4.7
		C81.3,146.9,83.4,149,83.4,151.6"/>
	<path fill="#35A7DE" d="M95,133.5c0,2.6-2.1,4.7-4.7,4.7s-4.7-2.1-4.7-4.7c0-2.6,2.1-4.7,4.7-4.7S95,130.9,95,133.5"/>
	<path fill="#35A7DE" d="M103.1,119.3c0,2.6-2.1,4.7-4.7,4.7s-4.7-2.1-4.7-4.7c0-2.6,2.1-4.7,4.7-4.7S103.1,116.7,103.1,119.3"/>
	<path fill="#35A7DE" d="M112.1,109.9c0,2.6-2.1,4.7-4.7,4.7s-4.7-2.1-4.7-4.7c0-2.6,2.1-4.7,4.7-4.7S112.1,107.3,112.1,109.9"/>
	<path fill="#35A7DE" d="M100.7,113.2c0,2.6-2.1,4.7-4.7,4.7s-4.7-2.1-4.7-4.7c0-2.6,2.1-4.7,4.7-4.7S100.7,110.6,100.7,113.2"/>
	<path fill="#35A7DE" d="M114.4,129.3c0,2.6-2.1,4.7-4.7,4.7s-4.7-2.1-4.7-4.7c0-2.6,2.1-4.7,4.7-4.7S114.4,126.7,114.4,129.3"/>
	<path fill="#35A7DE" d="M138,131.6c0,2.6-2.1,4.7-4.7,4.7s-4.7-2.1-4.7-4.7c0-2.6,2.1-4.7,4.7-4.7S138,129,138,131.6"/>
	<path fill="#35A7DE" d="M132.5,137.4c0,2.6-2.1,4.7-4.7,4.7s-4.7-2.1-4.7-4.7c0-2.6,2.1-4.7,4.7-4.7S132.5,134.8,132.5,137.4"/>
	<path fill="#35A7DE" d="M124.1,145.5c0,2.6-2.1,4.7-4.7,4.7s-4.7-2.1-4.7-4.7c0-2.6,2.1-4.7,4.7-4.7S124.1,142.9,124.1,145.5"/>
	<path fill="#35A7DE" d="M128.3,153.9c0,2.6-2.1,4.7-4.7,4.7s-4.7-2.1-4.7-4.7c0-2.6,2.1-4.7,4.7-4.7S128.3,151.3,128.3,153.9"/>
	<path fill="#35A7DE" d="M137.9,97.9c0,2.6-2.1,4.7-4.7,4.7s-4.7-2.1-4.7-4.7c0-2.6,2.1-4.7,4.7-4.7S137.9,95.3,137.9,97.9"/>
	<path fill="#35A7DE" d="M130.6,104.4c0,2.6-2.1,4.7-4.7,4.7s-4.7-2.1-4.7-4.7c0-2.6,2.1-4.7,4.7-4.7S130.6,101.8,130.6,104.4"/>
	<path fill="#35A7DE" d="M138.8,105.2c0,2.6-2.1,4.7-4.7,4.7s-4.7-2.1-4.7-4.7c0-2.6,2.1-4.7,4.7-4.7S138.8,102.6,138.8,105.2"/>
	<path fill="#35A7DE" d="M134.8,109.3c0,2.6-2.1,4.7-4.7,4.7c-2.6,0-4.7-2.1-4.7-4.7c0-2.6,2.1-4.7,4.7-4.7
		C132.7,104.6,134.8,106.7,134.8,109.3"/>
	<path fill="#35A7DE" d="M133.5,100.8c0,2.6-2.1,4.7-4.7,4.7s-4.7-2.1-4.7-4.7c0-2.6,2.1-4.7,4.7-4.7S133.5,98.3,133.5,100.8"/>
	<path fill="#35A7DE" d="M107,144.5c0,2.6-2.1,4.7-4.7,4.7s-4.7-2.1-4.7-4.7c0-2.6,2.1-4.7,4.7-4.7S107,141.9,107,144.5"/>
	<path fill="#35A7DE" d="M104.6,149.8c0,2.6-2.1,4.7-4.7,4.7s-4.7-2.1-4.7-4.7c0-2.6,2.1-4.7,4.7-4.7S104.6,147.2,104.6,149.8"/>
	<path fill="#35A7DE" d="M109.1,156.6c0,2.6-2.1,4.7-4.7,4.7s-4.7-2.1-4.7-4.7c0-2.6,2.1-4.7,4.7-4.7S109.1,154,109.1,156.6"/>
	<path fill="#35A7DE" d="M107.2,163.7c0,2.6-2.1,4.7-4.7,4.7s-4.7-2.1-4.7-4.7c0-2.6,2.1-4.7,4.7-4.7S107.2,161.1,107.2,163.7"/>
	<path fill="#35A7DE" d="M88.2,171.3c0,2.6-2.1,4.7-4.7,4.7c-2.6,0-4.7-2.1-4.7-4.7c0-2.6,2.1-4.7,4.7-4.7
		C86.1,166.6,88.2,168.7,88.2,171.3"/>
	<path fill="#35A7DE" d="M62,176.8c0,2.6-2.1,4.7-4.7,4.7s-4.7-2.1-4.7-4.7c0-2.6,2.1-4.7,4.7-4.7S62,174.2,62,176.8"/>
	<path fill="#35A7DE" d="M77.9,173.6c0,2.6-2.1,4.7-4.7,4.7c-2.6,0-4.7-2.1-4.7-4.7c0-2.6,2.1-4.7,4.7-4.7
		C75.8,168.9,77.9,171,77.9,173.6"/>
	<path fill="#35A7DE" d="M67.5,172.3c0,2.6-2.1,4.7-4.7,4.7s-4.7-2.1-4.7-4.7c0-2.6,2.1-4.7,4.7-4.7S67.5,169.7,67.5,172.3"/>
	<path fill="#35A7DE" d="M70.8,178.8c0,2.6-2.1,4.7-4.7,4.7s-4.7-2.1-4.7-4.7c0-2.6,2.1-4.7,4.7-4.7S70.8,176.2,70.8,178.8"/>
	<line fill="none" x1="498.4" y1="1491" x2="498.4" y2="-667.5"/>
	<line fill="none" x1="529.8" y1="-698.9" x2="529.8" y2="1522.5"/>
	<line fill="none" x1="529.8" y1="-698.9" x2="529.8" y2="1522.5"/>
	<line fill="none" x1="529.8" y1="-698.9" x2="529.8" y2="1522.5"/>
	<line fill="none" x1="529.8" y1="-698.9" x2="529.8" y2="1522.5"/>
	<line fill="none" x1="498.4" y1="1491" x2="498.4" y2="-667.5"/>
	<line fill="none" x1="529.8" y1="-698.9" x2="529.8" y2="1522.5"/>
	<line fill="none" x1="498.4" y1="1491" x2="498.4" y2="-667.5"/>
	<line fill="none" x1="529.8" y1="-698.9" x2="529.8" y2="1522.5"/>
	<line fill="none" x1="529.8" y1="-698.9" x2="529.8" y2="1522.5"/>
	<line fill="none" x1="498.4" y1="1491" x2="498.4" y2="-667.5"/>
	<line fill="none" x1="529.8" y1="-698.9" x2="529.8" y2="1522.5"/>
	<line fill="none" x1="529.8" y1="-698.9" x2="529.8" y2="1522.5"/>
	<line fill="none" x1="529.8" y1="-698.9" x2="529.8" y2="1522.5"/>
	<line fill="none" x1="529.8" y1="1522.5" x2="529.8" y2="-698.9"/>
</g>
<g id="Layer_2">
</g>
</svg>
