<?xml version="1.0" encoding="utf-8"?>
<!-- Generator: Adobe Illustrator 18.1.1, SVG Export Plug-In . SVG Version: 6.00 Build 0)  -->
<svg version="1.1" xmlns="http://www.w3.org/2000/svg" xmlns:xlink="http://www.w3.org/1999/xlink" x="0px" y="0px"
	 viewBox="0 0 50 50" enable-background="new 0 0 50 50" xml:space="preserve">
<g id="Layer_2">
	<circle fill="#F2F2F2" cx="25.3" cy="25" r="23.4"/>
</g>
<g id="Layer_1">
	<path fill="#40A6DE" d="M14.7,34.1h2.6c0.8,0,1.5-0.7,1.5-1.5V22.3c0-0.8-0.7-1.5-1.5-1.5h-2.6c-0.8,0-1.5,0.7-1.5,1.5v10.3
		C13.2,33.5,13.9,34.1,14.7,34.1z"/>
	<path fill="#999999" d="M28.3,34.2h-6.6c-0.8,0-1.5-0.7-1.5-1.5V22.3c0-0.8,0.7-1.5,1.5-1.5h6.6c0.8,0,1.5,0.7,1.5,1.5v10.3
		C29.8,33.5,29.1,34.2,28.3,34.2z"/>
	<path fill="#999999" d="M20.6,21.3l2.2-3.4c0,0,1.2-1.3,1.1-4.1c0-1.8-0.3-2.9,2.2-2.5c2.6,0.4,2.6,4,2.3,4.9
		c-0.2,0.9-1.1,5.3-1.1,5.3L20.6,21.3z"/>
	<path fill="#999999" d="M35.6,23.6h-8.3c-0.8,0-1.5-0.7-1.5-1.5v0c0-0.8,0.7-1.5,1.5-1.5h8.3c0.8,0,1.5,0.7,1.5,1.5v0
		C37.1,22.9,36.4,23.6,35.6,23.6z"/>
	<path fill="#999999" d="M35.1,27.1h-8.3c-0.8,0-1.5-0.7-1.5-1.5v0c0-0.8,0.7-1.5,1.5-1.5h8.3c0.8,0,1.5,0.7,1.5,1.5v0
		C36.6,26.4,35.9,27.1,35.1,27.1z"/>
	<path fill="#999999" d="M34.2,30.6h-8.3c-0.8,0-1.5-0.7-1.5-1.5v0c0-0.8,0.7-1.5,1.5-1.5h8.3c0.8,0,1.5,0.7,1.5,1.5v0
		C35.7,29.9,35.1,30.6,34.2,30.6z"/>
	<path fill="#999999" d="M33.5,34.1h-8.3c-0.8,0-1.5-0.7-1.5-1.5l0,0c0-0.8,0.7-1.5,1.5-1.5h8.3c0.8,0,1.5,0.7,1.5,1.5l0,0
		C35,33.4,34.4,34.1,33.5,34.1z"/>
	<path fill="#999999" d="M30.6,32.3l-2.4-0.5c-0.8-0.2-1.3-1-1.2-1.8l1.6-7.9c0.2-0.8,1-1.3,1.8-1.2l2.4,0.5c0.8,0.2,1.3,1,1.2,1.8
		l-1.6,7.9C32.2,31.9,31.4,32.4,30.6,32.3z"/>
</g>
</svg>
