<?xml version="1.0" encoding="utf-8"?>
<!-- Generator: Adobe Illustrator 18.1.1, SVG Export Plug-In . SVG Version: 6.00 Build 0)  -->
<svg version="1.1" id="Layer_1" xmlns="http://www.w3.org/2000/svg" xmlns:xlink="http://www.w3.org/1999/xlink" x="0px" y="0px"
	 viewBox="0 0 540 540" enable-background="new 0 0 540 540" xml:space="preserve">
<g>
	<path fill="#F2F2F2" d="M155.2,381.9L73.7,248.3c-1.9-2.9-5.1-4.7-8.5-4.7H15.7c-1.7,0-3.2,0.9-4.1,2.4c-0.8,1.5-0.8,3.3,0.1,4.7
		l106.7,174.7l4.1,6.5c0.9,1.3,2.3,2.2,4,2.2c1.6,0,3.1-0.8,4-2.2l24.8-39.7C157.1,389.1,157.1,385,155.2,381.9z"/>
	<path fill="#F2F2F2" d="M364.1,402.6c-1.9-2.8-5.1-4.5-8.4-4.5H185.3c-3.3,0-6.5,1.7-8.5,4.7l-25.3,40.4c-0.9,1.4-0.9,3.2-0.1,4.7
		c0.8,1.5,2.4,2.4,4.1,2.4h230.1c0.1,0,0.1,0,0.2,0c2.6,0,4.7-2.1,4.7-4.7c0-1.3-0.5-2.6-1.5-3.4L364.1,402.6z"/>
	<path fill="#F2F2F2" d="M525.2,243.7h-49.4c-3.5,0-6.7,1.7-8.6,4.7l-81.5,133.5c-1.9,3.2-1.9,7.3,0.1,10.5l24.8,39.6
		c0.9,1.3,2.4,2.2,4,2.2h0c1.6,0,3.1-0.9,4-2.3l110.7-181.2c0.9-1.4,0.9-3.2,0.1-4.7C528.4,244.6,526.8,243.7,525.2,243.7z"/>
	<path fill="#F2F2F2" d="M385.7,78.5L467.2,212c1.9,2.9,5.2,4.8,8.6,4.8h49.4c0.1,0,0.1,0,0.2,0c2.6,0,4.7-2.1,4.7-4.7
		c0-1.3-0.5-2.5-1.4-3.4L422.4,34.9l-4.1-6.5c-0.9-1.4-2.4-2.2-3.9-2.2h0c-1.6,0-3.1,0.8-3.9,2.2L385.7,68
		C383.7,71.2,383.7,75.4,385.7,78.5z"/>
	<path fill="#F2F2F2" d="M176.8,57.5c1.9,2.9,5.1,4.6,8.5,4.6h170.5c3.4,0,6.6-1.7,8.5-4.7l25.3-40.3c0.9-1.4,0.9-3.2,0.1-4.7
		c-0.8-1.5-2.4-2.4-4.1-2.4H155.4c-1.7,0-3.3,0.9-4.1,2.4c-0.8,1.5-0.8,3.3,0.1,4.7L176.8,57.5z"/>
	<path fill="#F2F2F2" d="M15.8,216.7h49.4c3.5,0,6.8-1.9,8.6-4.8l81.5-133.5c1.8-3.2,1.8-7.1-0.1-10.5l-24.7-39.5
		c-0.9-1.4-2.3-2.2-3.9-2.2h0c-1.6,0-3.1,0.8-4,2.2L11.8,209.6c-0.9,1.5-0.9,3.2-0.1,4.7C12.6,215.8,14.1,216.7,15.8,216.7z"/>
	<path fill="#F2F2F2" d="M412.7,222.8l-2.6-4.2l-58.6-95.9l-3.1-5.1c-2.5-4-8.3-7.3-13.1-7.3H205.8c-4.8,0-10.6,3.3-13,7.3l-3.2,5.1
		l-58.6,95.9l-2.6,4.3c-2.5,4-2.5,10.6,0,14.6l2.6,4.3l57.9,94.7l55.2-125.9l-36.4,8.2c-3.1,0.7-6.4,0.1-9.1-1.6
		c-2.7-1.7-4.6-4.4-5.4-7.6l-5.3-23.6c-1.5-6.5,2.6-13,9.1-14.4l92.4-20.8c0.2-0.1,0.4-0.3,0.6-0.3l23.6-5.3c1.6-0.4,3.2-0.3,4.8,0
		c1.6,0.3,3.1,0.8,4.5,1.7c2.7,1.7,4.6,4.4,5.3,7.6l5.3,23.6c0.1,0.2,0,0.5,0,0.7l20.8,92.5c1.5,6.5-2.6,13-9.1,14.5l-23.6,5.3
		c-3.2,0.7-6.4,0.1-9.1-1.6c-2.7-1.7-4.6-4.4-5.3-7.5l-7.9-35.3l-90,103.6h125.9c4.7,0,10.6-3.3,13.1-7.3l3.1-5.1l58.5-95.9l2.7-4.3
		C415.1,233.5,415.1,226.9,412.7,222.8z"/>
</g>
</svg>