<?xml version="1.0" standalone="no"?>
<!DOCTYPE svg PUBLIC "-//W3C//DTD SVG 20010904//EN"
 "http://www.w3.org/TR/2001/REC-SVG-20010904/DTD/svg10.dtd">
<svg version="1.0" xmlns="http://www.w3.org/2000/svg"
 width="700.000000pt" height="700.000000pt" viewBox="0 0 700.000000 700.000000"
 preserveAspectRatio="xMidYMid meet">
<metadata>
Created by potrace 1.11, written by Peter Selinger 2001-2013
</metadata>
<g transform="translate(0.000000,700.000000) scale(0.100000,-0.100000)"
fill="#000000" stroke="none">
<path d="M3328 6514 c-2 -1 -48 -5 -103 -9 -55 -3 -113 -8 -130 -10 -16 -2
-57 -7 -90 -10 -258 -27 -659 -171 -965 -348 -83 -47 -250 -155 -260 -167 -3
-3 -30 -23 -60 -45 -178 -127 -416 -359 -573 -560 -26 -33 -51 -64 -55 -70 -4
-5 -33 -46 -63 -90 -284 -413 -463 -890 -515 -1371 -12 -115 -13 -141 -14
-299 -1 -151 1 -192 16 -325 4 -30 8 -68 9 -85 2 -16 13 -82 25 -145 201
-1078 928 -1960 1925 -2335 64 -24 216 -74 240 -80 6 -1 30 -7 55 -14 25 -7
54 -15 65 -17 15 -3 87 -18 135 -29 9 -2 105 -16 140 -21 19 -3 46 -7 60 -9
107 -18 408 -25 590 -13 141 10 305 34 461 68 82 19 303 82 344 99 11 5 47 19
80 31 109 42 159 64 280 126 299 151 534 322 775 564 483 482 772 1084 854
1780 27 223 28 628 2 790 -3 14 -10 59 -16 100 -7 41 -14 84 -17 95 -2 11 -8
43 -14 70 -56 286 -207 656 -380 935 -37 60 -156 228 -168 240 -4 3 -24 28
-46 55 -120 151 -320 346 -495 482 -81 63 -276 193 -289 193 -5 0 -11 3 -13 8
-8 18 -266 150 -407 207 -263 107 -445 154 -699 180 -26 3 -63 7 -82 10 -98
13 -592 29 -602 19z m507 -379 c22 -3 67 -10 100 -15 33 -5 80 -12 105 -15 24
-4 47 -8 51 -10 3 -2 21 -7 40 -10 95 -17 247 -68 372 -124 42 -20 46 -24 36
-42 -17 -33 -170 -184 -229 -227 -142 -103 -355 -193 -515 -216 -22 -4 -65
-10 -95 -15 -57 -9 -311 -7 -367 3 -18 3 -45 8 -60 10 -159 26 -360 103 -498
191 -33 21 -62 41 -65 44 -3 3 -23 19 -45 36 -41 29 -155 144 -155 155 0 6 97
64 155 93 120 60 392 125 595 143 41 4 77 8 79 10 6 5 452 -4 496 -11z m1206
-460 c127 -81 483 -390 530 -461 29 -44 25 -86 -12 -122 -57 -55 -407 -217
-641 -296 -186 -63 -526 -145 -663 -161 -16 -2 -52 -7 -80 -10 -27 -3 -57 -7
-65 -10 -8 -2 -51 -7 -95 -11 -44 -3 -89 -8 -99 -10 -25 -5 -275 -17 -351 -18
-65 0 -322 12 -395 19 -25 2 -76 7 -115 10 -38 3 -77 8 -85 10 -8 2 -40 7 -70
10 -53 6 -74 9 -142 20 -273 45 -571 124 -811 215 -180 68 -370 156 -422 196
-41 31 -55 81 -34 122 16 32 347 364 422 423 105 84 216 118 274 86 34 -19 94
-78 154 -152 131 -162 507 -354 804 -411 11 -2 31 -6 45 -9 14 -2 45 -7 70
-10 25 -3 62 -8 84 -11 52 -8 288 -8 356 0 109 13 136 18 205 33 333 72 635
229 870 454 145 138 177 150 266 94z m-3625 -961 c21 -9 86 -47 144 -84 115
-74 142 -87 270 -131 296 -102 746 -211 1010 -245 25 -3 56 -7 70 -10 211 -34
673 -49 970 -30 68 4 127 9 130 11 3 1 39 6 80 9 41 4 82 9 90 11 8 2 38 6 65
10 28 3 59 8 70 10 11 3 31 7 45 9 84 14 116 20 220 43 232 51 510 138 750
233 135 54 184 76 331 143 120 56 180 59 224 11 62 -66 178 -377 256 -681 43
-169 48 -216 29 -262 -27 -66 172 -61 -2618 -62 -2731 -1 -2583 -4 -2624 52
-31 41 -28 103 12 274 12 50 23 99 26 110 2 11 6 31 9 45 3 14 7 34 9 45 77
396 233 572 432 489z m4714 -1420 c50 -29 62 -57 55 -132 -3 -34 -10 -73 -14
-86 -5 -12 -11 -36 -14 -52 -24 -149 -186 -626 -243 -716 -49 -77 -77 -76
-269 8 -346 151 -723 286 -894 320 -14 3 -28 7 -32 9 -14 9 -329 75 -449 94
-147 23 -186 28 -260 35 -30 3 -91 8 -135 12 -168 16 -575 10 -800 -11 -474
-45 -1071 -214 -1551 -441 -227 -107 -261 -117 -304 -94 -66 36 -213 427 -286
760 -37 174 -39 239 -7 271 47 47 -57 45 2630 45 l2538 -1 35 -21z m-2345
-889 c130 -7 183 -12 400 -41 40 -5 231 -40 320 -58 274 -56 669 -194 927
-323 147 -74 181 -119 144 -191 -14 -27 -205 -219 -301 -303 -27 -24 -52 -47
-55 -50 -17 -19 -120 -94 -154 -111 -118 -60 -178 -38 -286 107 -61 81 -138
143 -296 236 -433 256 -923 322 -1399 187 -269 -75 -500 -208 -748 -430 -66
-59 -135 -114 -153 -123 -59 -28 -105 -20 -181 31 -37 26 -70 50 -73 53 -3 4
-66 54 -140 110 -219 169 -288 254 -277 347 10 97 91 161 274 219 65 20 199
63 298 95 204 66 338 107 375 114 14 3 45 10 70 17 66 16 73 17 210 44 69 13
148 26 175 29 28 3 59 8 71 10 12 2 57 7 100 11 43 4 87 9 97 11 11 2 92 6
180 10 89 4 163 8 165 9 3 2 120 -2 257 -10z m10 -870 c86 -12 265 -68 362
-115 177 -84 393 -267 393 -332 0 -78 -309 -184 -660 -225 -84 -10 -525 -10
-613 0 -96 10 -195 26 -277 42 -14 3 -35 7 -48 10 -89 16 -310 89 -385 127
l-38 19 43 51 c192 230 501 392 805 424 32 4 60 9 63 11 6 6 297 -4 355 -12z"/>
</g>
</svg>
